<svg width="534" height="133" viewBox="0 0 534 133" fill="none" xmlns="http://www.w3.org/2000/svg">
    <rect x="0.5" y="0.5" width="533" height="132" rx="22.3718" fill="#0A0909" stroke="#363533"/>
    <path d="M391.193 72.1521V66.6128L405.082 44.7319H409.858V52.3992H407.031L398.275 66.2555V66.5154H418.012V72.1521H391.193ZM407.161 78V70.4627L407.291 68.0098V44.7319H413.886V78H407.161ZM429.659 73.4516L429.48 75.2385C429.34 76.668 429.069 78.0921 428.668 79.5107C428.278 80.9402 427.867 82.2343 427.434 83.3931C427.011 84.5518 426.67 85.4615 426.41 86.1221H421.927C422.089 85.4831 422.311 84.5897 422.593 83.4418C422.875 82.3047 423.14 81.0268 423.389 79.6082C423.638 78.1895 423.795 76.7438 423.86 75.271L423.941 73.4516H429.659ZM447.349 78.4548C445.638 78.444 443.987 78.157 442.395 77.5939C440.813 77.0308 439.395 76.1157 438.139 74.8486C436.882 73.5816 435.886 71.903 435.15 69.8129C434.424 67.7229 434.061 65.1563 434.061 62.1132C434.072 59.3192 434.392 56.823 435.02 54.6246C435.659 52.4154 436.568 50.5419 437.749 49.0042C438.94 47.4664 440.364 46.2968 442.021 45.4954C443.678 44.6832 445.535 44.2771 447.593 44.2771C449.813 44.2771 451.773 44.7103 453.473 45.5766C455.173 46.4322 456.538 47.5963 457.567 49.0691C458.606 50.5419 459.234 52.1934 459.451 54.0236H452.515C452.244 52.8649 451.675 51.9552 450.809 51.2946C449.943 50.634 448.871 50.3037 447.593 50.3037C445.427 50.3037 443.781 51.2458 442.654 53.1302C441.539 55.0145 440.971 57.5757 440.949 60.8137H441.176C441.674 59.8282 442.346 58.9889 443.191 58.2958C444.046 57.5919 445.015 57.0558 446.098 56.6876C447.192 56.3086 448.345 56.1191 449.558 56.1191C451.529 56.1191 453.284 56.5848 454.821 57.5161C456.359 58.4366 457.572 59.7036 458.46 61.3172C459.348 62.9308 459.792 64.7772 459.792 66.8565C459.792 69.109 459.267 71.1125 458.216 72.8668C457.177 74.6212 455.72 75.9966 453.847 76.9929C451.984 77.9783 449.818 78.4657 447.349 78.4548ZM447.317 72.9318C448.4 72.9318 449.369 72.6719 450.224 72.1521C451.08 71.6323 451.751 70.9284 452.239 70.0404C452.726 69.1523 452.97 68.156 452.97 67.0514C452.97 65.9468 452.726 64.9559 452.239 64.0787C451.762 63.2016 451.101 62.5031 450.257 61.9832C449.412 61.4634 448.448 61.2035 447.365 61.2035C446.553 61.2035 445.8 61.3551 445.107 61.6584C444.425 61.9616 443.824 62.3839 443.304 62.9254C442.795 63.4669 442.395 64.095 442.102 64.8097C441.81 65.5136 441.664 66.2663 441.664 67.0677C441.664 68.1398 441.907 69.1199 442.395 70.0079C442.893 70.8959 443.564 71.6052 444.409 72.1359C445.264 72.6665 446.234 72.9318 447.317 72.9318Z" fill="white"/>
    <path d="M376.209 88.4545V103H373.574V91.0185H373.489L370.087 93.1918V90.777L373.702 88.4545H376.209ZM385.278 103.277C384.109 103.277 383.105 102.981 382.267 102.389C381.434 101.793 380.792 100.933 380.342 99.8111C379.897 98.6842 379.675 97.3277 379.675 95.7415C379.679 94.1553 379.904 92.8059 380.349 91.6932C380.799 90.5758 381.441 89.7235 382.274 89.1364C383.112 88.5492 384.114 88.2557 385.278 88.2557C386.443 88.2557 387.445 88.5492 388.283 89.1364C389.121 89.7235 389.762 90.5758 390.207 91.6932C390.657 92.8106 390.882 94.16 390.882 95.7415C390.882 97.3324 390.657 98.6913 390.207 99.8182C389.762 100.94 389.121 101.797 388.283 102.389C387.449 102.981 386.448 103.277 385.278 103.277ZM385.278 101.054C386.188 101.054 386.905 100.607 387.43 99.7116C387.961 98.812 388.226 97.4886 388.226 95.7415C388.226 94.5862 388.105 93.6155 387.864 92.8295C387.622 92.0436 387.281 91.4517 386.841 91.054C386.401 90.6515 385.88 90.4503 385.278 90.4503C384.374 90.4503 383.659 90.9001 383.134 91.7997C382.608 92.6946 382.343 94.0085 382.338 95.7415C382.333 96.9015 382.449 97.8769 382.686 98.6676C382.928 99.4583 383.268 100.055 383.709 100.457C384.149 100.855 384.672 101.054 385.278 101.054ZM398.412 103.199C397.356 103.199 396.419 103.021 395.6 102.666C394.785 102.311 394.146 101.826 393.682 101.21C393.223 100.59 392.996 99.8868 393 99.1009C392.996 98.4901 393.128 97.929 393.398 97.4176C393.668 96.9062 394.033 96.4801 394.492 96.1392C394.956 95.7936 395.472 95.5734 396.04 95.4787V95.3793C395.292 95.2135 394.686 94.8324 394.222 94.2358C393.763 93.6345 393.535 92.9408 393.54 92.1548C393.535 91.4067 393.744 90.7391 394.165 90.152C394.587 89.5649 395.164 89.1032 395.898 88.767C396.632 88.4261 397.47 88.2557 398.412 88.2557C399.345 88.2557 400.176 88.4261 400.905 88.767C401.639 89.1032 402.217 89.5649 402.638 90.152C403.064 90.7391 403.277 91.4067 403.277 92.1548C403.277 92.9408 403.043 93.6345 402.574 94.2358C402.11 94.8324 401.511 95.2135 400.777 95.3793V95.4787C401.346 95.5734 401.857 95.7936 402.311 96.1392C402.771 96.4801 403.135 96.9062 403.405 97.4176C403.68 97.929 403.817 98.4901 403.817 99.1009C403.817 99.8868 403.585 100.59 403.121 101.21C402.657 101.826 402.018 102.311 401.203 102.666C400.394 103.021 399.463 103.199 398.412 103.199ZM398.412 101.168C398.957 101.168 399.43 101.075 399.833 100.891C400.235 100.701 400.548 100.436 400.77 100.095C400.993 99.7543 401.106 99.3613 401.111 98.9162C401.106 98.4522 400.986 98.0426 400.749 97.6875C400.517 97.3277 400.197 97.0459 399.79 96.8423C399.388 96.6387 398.928 96.5369 398.412 96.5369C397.891 96.5369 397.427 96.6387 397.02 96.8423C396.613 97.0459 396.291 97.3277 396.054 97.6875C395.822 98.0426 395.709 98.4522 395.713 98.9162C395.709 99.3613 395.818 99.7543 396.04 100.095C396.263 100.431 396.575 100.694 396.978 100.884C397.385 101.073 397.863 101.168 398.412 101.168ZM398.412 94.5412C398.857 94.5412 399.25 94.4512 399.591 94.2713C399.937 94.0914 400.209 93.8404 400.408 93.5185C400.607 93.1965 400.709 92.8248 400.713 92.4034C400.709 91.9867 400.609 91.6222 400.415 91.3097C400.221 90.9924 399.951 90.7486 399.605 90.5781C399.26 90.4029 398.862 90.3153 398.412 90.3153C397.953 90.3153 397.548 90.4029 397.198 90.5781C396.852 90.7486 396.582 90.9924 396.388 91.3097C396.199 91.6222 396.106 91.9867 396.111 92.4034C396.106 92.8248 396.201 93.1965 396.395 93.5185C396.594 93.8357 396.866 94.0866 397.212 94.2713C397.562 94.4512 397.962 94.5412 398.412 94.5412ZM415.9 103.213C414.835 103.213 413.911 102.979 413.13 102.51C412.349 102.041 411.743 101.385 411.312 100.543C410.886 99.6998 410.673 98.715 410.673 97.5881C410.673 96.4612 410.886 95.474 411.312 94.6264C411.743 93.7789 412.349 93.1207 413.13 92.652C413.911 92.1832 414.835 91.9489 415.9 91.9489C416.965 91.9489 417.888 92.1832 418.67 92.652C419.451 93.1207 420.055 93.7789 420.481 94.6264C420.912 95.474 421.127 96.4612 421.127 97.5881C421.127 98.715 420.912 99.6998 420.481 100.543C420.055 101.385 419.451 102.041 418.67 102.51C417.888 102.979 416.965 103.213 415.9 103.213ZM415.914 101.153C416.492 101.153 416.975 100.995 417.363 100.678C417.751 100.356 418.04 99.9247 418.229 99.3849C418.424 98.8452 418.521 98.2438 418.521 97.581C418.521 96.9134 418.424 96.3097 418.229 95.7699C418.04 95.2254 417.751 94.7921 417.363 94.4702C416.975 94.1482 416.492 93.9872 415.914 93.9872C415.322 93.9872 414.83 94.1482 414.437 94.4702C414.049 94.7921 413.757 95.2254 413.563 95.7699C413.374 96.3097 413.279 96.9134 413.279 97.581C413.279 98.2438 413.374 98.8452 413.563 99.3849C413.757 99.9247 414.049 100.356 414.437 100.678C414.83 100.995 415.322 101.153 415.914 101.153ZM432.521 92.0909V101.082H434.19V106.509H431.676V103H423.309V92.0909H425.788V100.891H430.064V92.0909H432.521ZM441.01 103.213C439.916 103.213 438.972 102.986 438.176 102.531C437.385 102.072 436.777 101.423 436.351 100.585C435.925 99.7424 435.712 98.7505 435.712 97.6094C435.712 96.4872 435.925 95.5024 436.351 94.6548C436.782 93.8026 437.383 93.1397 438.155 92.6662C438.927 92.188 439.833 91.9489 440.875 91.9489C441.547 91.9489 442.182 92.0578 442.778 92.2756C443.38 92.4886 443.91 92.8201 444.369 93.2699C444.833 93.7197 445.198 94.2926 445.463 94.9886C445.728 95.6799 445.861 96.5038 445.861 97.4602V98.2486H436.919V96.5156H443.396C443.392 96.0232 443.285 95.5852 443.077 95.2017C442.868 94.8134 442.577 94.508 442.203 94.2855C441.834 94.063 441.403 93.9517 440.911 93.9517C440.385 93.9517 439.923 94.0795 439.526 94.3352C439.128 94.5862 438.818 94.9176 438.595 95.3295C438.377 95.7367 438.266 96.1842 438.261 96.6719V98.1847C438.261 98.8191 438.377 99.3636 438.609 99.8182C438.841 100.268 439.166 100.614 439.582 100.855C439.999 101.092 440.487 101.21 441.045 101.21C441.42 101.21 441.758 101.158 442.061 101.054C442.364 100.945 442.627 100.786 442.849 100.578C443.072 100.37 443.24 100.112 443.354 99.804L445.754 100.074C445.603 100.708 445.314 101.262 444.888 101.736C444.466 102.205 443.927 102.569 443.268 102.83C442.61 103.085 441.857 103.213 441.01 103.213ZM455.529 96.4801V98.5895H449.719V96.4801H455.529ZM450.515 92.0909V103H448.036V92.0909H450.515ZM457.212 92.0909V103H454.74V92.0909H457.212ZM464.572 103.213C463.506 103.213 462.583 102.979 461.802 102.51C461.021 102.041 460.415 101.385 459.984 100.543C459.558 99.6998 459.344 98.715 459.344 97.5881C459.344 96.4612 459.558 95.474 459.984 94.6264C460.415 93.7789 461.021 93.1207 461.802 92.652C462.583 92.1832 463.506 91.9489 464.572 91.9489C465.637 91.9489 466.56 92.1832 467.342 92.652C468.123 93.1207 468.727 93.7789 469.153 94.6264C469.584 95.474 469.799 96.4612 469.799 97.5881C469.799 98.715 469.584 99.6998 469.153 100.543C468.727 101.385 468.123 102.041 467.342 102.51C466.56 102.979 465.637 103.213 464.572 103.213ZM464.586 101.153C465.164 101.153 465.647 100.995 466.035 100.678C466.423 100.356 466.712 99.9247 466.901 99.3849C467.095 98.8452 467.192 98.2438 467.192 97.581C467.192 96.9134 467.095 96.3097 466.901 95.7699C466.712 95.2254 466.423 94.7921 466.035 94.4702C465.647 94.1482 465.164 93.9872 464.586 93.9872C463.994 93.9872 463.502 94.1482 463.109 94.4702C462.72 94.7921 462.429 95.2254 462.235 95.7699C462.046 96.3097 461.951 96.9134 461.951 97.581C461.951 98.2438 462.046 98.8452 462.235 99.3849C462.429 99.9247 462.72 100.356 463.109 100.678C463.502 100.995 463.994 101.153 464.586 101.153ZM471.981 103V92.0909H474.552V96.4943H475.49L478.771 92.0909H481.868L477.826 97.446L481.91 103H478.799L475.809 98.8878H474.552V103H471.981Z" fill="#B9B9B9"/>
    <path d="M123.436 79.9248L126.003 87.8268H134.312L127.59 92.7105L130.158 100.613L123.436 95.7288L116.714 100.613L119.282 92.7105L112.56 87.8268H120.868L123.436 79.9248Z" fill="#F6C543"/>
    <path d="M150.119 79.9248L152.687 87.8268H160.996L154.274 92.7105L156.841 100.613L150.119 95.7288L143.398 100.613L145.965 92.7105L139.243 87.8268H147.552L150.119 79.9248Z" fill="#F6C543"/>
    <path d="M176.804 79.9248L179.372 87.8268H187.68L180.958 92.7105L183.526 100.613L176.804 95.7288L170.082 100.613L172.65 92.7105L165.928 87.8268H174.237L176.804 79.9248Z" fill="#F6C543"/>
    <path d="M203.487 79.9248L206.054 87.8268H214.363L207.641 92.7105L210.209 100.613L203.487 95.7288L196.765 100.613L199.332 92.7105L192.61 87.8268H200.919L203.487 79.9248Z" fill="#F6C543"/>
    <path d="M230.171 79.9248L232.739 87.8268H241.047L234.326 92.7105L236.893 100.613L230.171 95.7288L223.449 100.613L226.017 92.7105L219.295 87.8268H227.604L230.171 79.9248Z" fill="#F6C543"/>
    <path fill-rule="evenodd" clip-rule="evenodd" d="M221.969 51.7711L230.865 48.0612C230.37 46.8102 228.909 45.9474 227.169 45.9474C224.945 45.9366 221.862 47.9102 221.969 51.7711ZM232.412 55.3624L235.807 57.6271C234.711 59.2556 232.079 62.0596 227.513 62.0596C221.862 62.0596 217.779 57.6703 217.779 52.0731C217.779 46.1308 221.894 42.0865 227.029 42.0865C231.746 42.2483 234.679 45.3003 236 49.571L222.678 55.0927C223.699 57.0987 225.278 58.1232 227.502 58.1232C229.715 58.1232 231.262 57.0232 232.39 55.3624M210.796 61.4557H215.169V32.1216H210.796V61.4557ZM203.662 52.1054C203.662 48.5896 201.32 46.0121 198.344 46.0121C195.336 46.0121 192.801 48.5896 192.801 52.1054C192.801 55.5888 195.326 58.1232 198.344 58.1232C201.331 58.1232 203.662 55.5888 203.662 52.1054ZM207.509 42.6905V60.5929C207.509 67.9695 203.179 71 198.054 71C193.231 71 190.33 67.743 189.234 65.1008L193.037 63.5155C193.714 65.144 195.379 67.0744 198.054 67.0744C202.943 66.5168 203.372 63.3429 203.372 59.7732H203.211C202.234 60.9811 200.343 62.0488 197.968 62.0488C192.994 62.0488 188.428 57.7026 188.428 52.0946C188.428 46.4543 192.984 42.065 197.968 42.065C200.343 42.065 202.234 43.1219 203.211 44.2974H203.362V42.6689C203.362 42.6581 207.509 42.6581 207.509 42.6581V42.6905ZM159.808 52.0731C159.808 48.4818 157.251 46.0229 154.297 46.0229C151.331 46.0229 148.785 48.4818 148.785 52.0731C148.785 55.632 151.342 58.1232 154.297 58.1232C157.251 58.1232 159.808 55.6212 159.808 52.0731ZM164.105 52.0731C164.105 57.8212 159.701 62.0596 154.297 62.0596C148.893 62.0596 144.488 57.8212 144.488 52.0731C144.488 46.2817 148.893 42.0865 154.297 42.0865C159.701 42.0865 164.105 46.2817 164.105 52.0731ZM181.832 52.0731C181.832 48.4818 179.275 46.0229 176.321 46.0229C173.355 46.0229 170.809 48.4818 170.809 52.0731C170.809 55.632 173.366 58.1232 176.321 58.1232C179.275 58.1232 181.832 55.6212 181.832 52.0731ZM186.129 52.0731C186.129 57.8212 181.724 62.0596 176.321 62.0596C170.917 62.0596 166.512 57.8212 166.512 52.0731C166.512 46.2817 170.917 42.0865 176.321 42.0865C181.724 42.0865 186.129 46.2817 186.129 52.0731ZM127.685 62.0596C119.177 62.0596 112 55.0927 112 46.5298C112 37.9776 119.166 31 127.685 31C132.402 31 135.754 32.8549 138.278 35.2815L135.302 38.2688C133.497 36.5648 131.048 35.2383 127.685 35.2383C121.465 35.2383 116.62 40.2747 116.62 46.4543C116.62 52.6986 121.486 57.6703 127.685 57.6703C131.714 57.6703 134.013 56.0418 135.485 54.5643C136.688 53.3564 137.483 51.6093 137.784 49.2259H127.685V44.9876H141.867C142.017 45.7425 142.092 46.6484 142.092 47.6298C142.092 50.8113 141.222 54.7476 138.439 57.5408C135.732 60.3988 132.262 61.9194 127.696 61.9194" fill="#D5DDE8"/>
    <path d="M246 61.2207V35H249.327L258.273 50.9704H258.408L267.354 35H270.681V61.2207H267.355L267.49 41.2692H267.355L259.308 55.638H257.375L249.328 41.2692H249.193C249.438 47.9055 249.328 54.5855 249.328 61.2207H246ZM281.065 61.6783C279.177 61.6783 277.649 61.1292 276.39 60.031C275.131 58.9327 274.502 57.4684 274.502 55.6826C274.502 53.7149 275.266 52.2048 276.75 51.1066C278.233 50.0083 280.076 49.4592 282.234 49.4592C284.167 49.4592 285.786 49.8253 286.999 50.5575C286.967 46.7513 284.383 45.7069 282.369 45.7069C280.467 45.7988 278.818 46.6083 278.143 48.3152L275.131 46.9882C275.536 45.9357 276.345 44.9278 277.559 44.0137C278.773 43.0996 280.346 42.6409 282.324 42.6409C284.572 42.6409 286.46 43.3273 287.944 44.6544C289.427 45.9814 290.191 47.9034 290.191 50.3287V61.1739H287.044V58.7028C285.574 60.579 283.587 61.636 281.065 61.6772V61.6783ZM286.999 53.3499C285.062 51.849 281.02 51.6614 279.132 53.2127C277.649 54.677 277.491 56.6401 279.042 57.7887C282.792 60.2369 287.134 56.425 286.999 53.3499ZM303.094 61.6783C301.745 61.6783 300.531 61.4038 299.497 60.8089C298.463 60.214 297.654 59.4818 297.114 58.6124H296.935L297.07 61.0834V69H293.788V43.1454H296.935V45.6164H297.07C297.609 44.747 298.373 44.0148 299.452 43.4199C300.531 42.825 301.745 42.5505 303.049 42.5505C305.341 42.5505 307.274 43.4657 308.938 45.2961C310.601 47.1265 311.409 49.4145 311.409 52.1144C311.409 54.8143 310.6 57.1023 308.938 58.9327C307.319 60.7631 305.341 61.6783 303.094 61.6783ZM302.554 58.5666C304.083 58.5666 305.386 57.9717 306.51 56.782C307.634 55.5922 308.174 54.0363 308.174 52.0686C308.174 50.1009 307.634 48.5451 306.51 47.3553C305.386 46.1656 304.083 45.5707 302.554 45.5707C300.981 45.5707 299.677 46.1656 298.598 47.3096C297.519 48.4993 296.98 50.0552 296.98 52.0229C296.98 53.9906 297.519 55.5922 298.598 56.7362C299.677 58.0175 300.981 58.5666 302.554 58.5666ZM321.076 61.6783C319.098 61.6783 317.479 61.175 316.221 60.214C314.917 59.253 314.018 58.0175 313.388 56.5532L316.355 55.3176C317.299 57.5599 318.873 58.7039 321.121 58.7039C322.155 58.7039 323.009 58.4762 323.638 58.0175C324.313 57.5599 324.627 56.965 324.627 56.1871C324.627 54.9973 323.818 54.2194 322.2 53.8075L318.648 52.9381C317.524 52.6635 316.445 52.0686 315.456 51.2907C314.467 50.5128 313.928 49.3688 313.928 47.996C313.928 46.3943 314.602 45.1131 315.996 44.1521C317.389 43.1454 319.008 42.6878 320.896 42.6878C322.469 42.6878 323.863 43.0538 325.077 43.786C326.291 44.5182 327.19 45.5249 327.684 46.8977L324.807 48.0875C324.178 46.4859 322.829 45.7079 320.761 45.7079C319.772 45.7079 318.963 45.9357 318.29 46.3486C317.616 46.7615 317.301 47.3096 317.301 48.0417C317.301 49.0485 318.065 49.7806 319.638 50.1467L323.145 50.9704C324.808 51.3822 326.022 52.0229 326.831 52.9839C327.64 53.9448 328 54.9973 328 56.1871C328 57.7887 327.371 59.1615 326.067 60.214C324.808 61.1292 323.145 61.6783 321.077 61.6783H321.076Z" fill="#8F939A"/>
    <path d="M50.4941 81.237C52.5032 83.7495 54.5493 86.9088 55.62 88.8171C56.924 91.2978 57.4647 92.9729 58.4348 95.9731C59.002 97.6164 59.5426 98.1146 60.677 98.1146C61.9174 98.1146 62.4846 97.2771 62.9193 95.9731C63.8257 93.1584 64.5254 91.0169 65.6333 88.9761C69.9058 80.9189 76.871 75.1941 80.7937 67.349C80.7937 67.349 83.3752 62.5571 83.3752 55.8463C83.3752 49.5914 80.8308 45.2448 80.8308 45.2448L50.51 81.29L50.4941 81.237Z" fill="#34A853"/>
    <path d="M40.21 66.5009C42.6536 72.0667 47.3131 76.9434 50.4936 81.237L67.3502 61.2531C67.3502 61.2531 64.9701 64.37 60.6711 64.37C55.8792 64.37 51.9778 60.5534 51.9778 55.7297C51.9778 52.4114 53.955 50.1109 53.955 50.1109C41.5511 51.9556 42.2402 54.9611 40.1729 66.4903L40.21 66.5009Z" fill="#FBBC04"/>
    <path d="M67.563 34.0443C73.1819 35.8518 77.9526 39.6631 80.8151 45.2289L67.351 61.2902C67.351 61.2902 69.3282 58.9791 69.3282 55.6714C69.3282 50.747 65.1723 47.0311 60.6878 47.0311C56.4313 47.0311 54.0088 50.1109 54.0088 50.1109C55.0424 47.7573 65.7236 34.8447 67.5789 34.0496L67.563 34.0443Z" fill="#4285F4"/>
    <path d="M43.2852 41.1102C46.6353 37.124 52.5086 33 60.6189 33C64.5362 33 67.5099 34.039 67.5099 34.039L53.9928 50.1003C53.0811 49.6057 44.1863 42.6792 43.2852 41.089V41.1102Z" fill="#1A73E8"/>
    <path d="M40.2104 66.5009C40.2104 66.5009 38 62.1119 38 55.7933C38 49.8035 40.343 44.5557 43.3008 41.1632L54.0085 50.1745L40.2263 66.5009H40.2104Z" fill="#EA4335"/>
</svg>
