<svg width="38" height="47" viewBox="0 0 38 47" fill="none" xmlns="http://www.w3.org/2000/svg">
<path d="M26.7317 13.6461H26.278C26.2023 13.6461 26.1645 13.6461 26.1267 13.6079C26.0511 13.5317 25.9755 13.4555 25.9755 13.3411V13.2649L26.0133 13.1886C26.0133 13.1505 26.0133 13.1505 26.0511 13.1505L26.0889 13.1124C26.1267 13.0743 26.1645 13.0743 26.1645 13.0362C26.2023 13.0362 26.2402 12.998 26.278 13.0362H26.7317C26.6939 13.0362 26.6939 13.6461 26.7317 13.6461ZM26.2023 12.5025C25.8999 12.5025 25.5974 12.655 25.484 12.9599L25.4461 12.998V13.0362C25.4083 13.1124 25.4083 13.2267 25.4083 13.303V13.3792C25.4083 13.4173 25.4083 13.4173 25.4083 13.4555C25.4083 13.5698 25.4461 13.6842 25.5218 13.7985C25.5596 13.8367 25.5974 13.8748 25.6352 13.9129C25.7108 13.9891 25.7864 14.0272 25.8621 14.0654L25.2571 15.0565H25.8999L26.467 14.1416H26.7695V15.0565H27.3745V12.5025H26.2023ZM36.4489 10.5584C36.2976 15.247 35.9951 19.8975 35.2389 24.5099C32.3276 23.7475 29.3406 23.252 26.3536 22.9852C26.4292 22.6421 26.5048 22.2609 26.5426 21.9178C26.4292 21.8797 26.1645 21.8797 26.0133 21.8797C26.0511 21.3842 26.0511 20.8505 26.0133 20.3168L26.5426 20.2787C26.467 19.4782 26.2402 18.7159 25.9377 17.9916C25.9377 17.9916 25.484 18.2203 25.4461 18.2203C25.2193 17.7629 24.9546 17.3055 24.6899 16.8862L25.1059 16.5812C24.6521 15.9332 24.085 15.3995 23.4422 14.9421L23.1397 15.3995C22.686 15.0565 22.1567 14.7896 21.6273 14.5609C22.0811 14.256 22.497 13.9129 22.8373 13.5317L23.1397 13.8366L23.2154 13.9129C23.7447 13.303 24.1606 12.6168 24.3875 11.8545L23.8959 11.7401C24.0472 11.2446 24.1228 10.749 24.1606 10.2154L24.6899 10.2535C24.6899 9.45299 24.5765 8.69061 24.274 7.92824L23.8203 8.11883C23.6313 7.6614 23.3666 7.20398 23.0641 6.78467L23.48 6.47972C22.9885 5.86982 22.3835 5.33616 21.6651 4.99309L21.4383 5.45051C20.9846 5.2218 20.493 5.03121 20.0015 4.95497L20.1149 4.42131C19.3587 4.26883 18.5647 4.26883 17.7707 4.42131C17.7707 4.42131 17.922 4.91685 17.922 4.95497C17.4304 5.06933 16.9389 5.25992 16.4852 5.48863L16.2583 5.03121C15.5777 5.4124 14.9728 5.90794 14.4812 6.55596L14.8972 6.86091C14.5947 7.28022 14.33 7.73764 14.1409 8.19507L13.6494 7.96635C13.3469 8.69061 13.2335 9.49111 13.2713 10.2916L13.8007 10.2535C13.8385 10.749 13.9141 11.2827 14.0653 11.7782L13.5738 11.9307C13.8007 12.6931 14.2166 13.3792 14.7459 13.951L15.124 13.5698C15.3887 13.8748 15.6912 14.1416 15.9936 14.3703C15.9558 14.4466 16.1071 14.6371 16.1071 14.7134C15.6533 14.9421 15.1996 15.2089 14.7837 15.4758L14.4812 15.0183C13.8385 15.4758 13.3091 16.0475 12.8554 16.6956L13.2713 17.0005C12.9688 17.4198 12.7042 17.8772 12.5151 18.3347L12.0992 18.0678C11.7967 18.7921 11.5699 19.5545 11.4942 20.3168L12.0236 20.355C11.9858 20.8505 11.9858 21.3842 12.0236 21.9178L11.4942 21.956C11.5321 22.299 11.5699 22.6421 11.6833 22.9852C8.69631 23.252 5.6715 23.7475 2.76013 24.5099C2.00393 19.8594 1.70145 15.0946 1.55021 10.406C2.00393 10.2535 2.60889 10.0629 3.32728 9.83418C3.47852 9.60546 3.66757 9.33863 3.85662 9.10992C3.06261 9.33863 2.41984 9.52923 1.85269 9.71982L3.0248 8.08071C3.66757 7.89012 4.46158 7.6614 5.33121 7.43269C5.59588 7.16586 5.86055 6.93715 6.12522 6.67032C5.14216 6.89903 4.27253 7.12774 3.55414 7.35645L4.95311 5.4124C6.50332 4.91685 8.84755 4.84061 10.4734 3.77329C8.54507 4.04012 6.88142 4.38319 5.44464 4.72626L6.35208 3.43022C10.6624 2.09606 15.2374 1.67675 19.7368 1.75299C23.8203 1.75299 27.8282 2.21042 31.7226 3.43022L32.5544 4.6119C30.853 4.19259 29.1137 3.88764 27.3366 3.65893C29.0003 4.76438 31.4579 4.8025 33.046 5.29804C33.3863 5.79358 34.0668 6.74655 34.4071 7.2421C33.6131 7.01338 32.7057 6.78467 31.7226 6.55596C31.9495 6.78467 32.2898 7.0515 32.5166 7.28022C33.3106 7.47081 34.1046 7.69952 34.8987 7.92824C35.2768 8.4619 35.7683 9.14804 36.1464 9.71982C35.4658 9.49111 34.7852 9.26239 34.1046 9.0718C34.2937 9.30051 34.4827 9.56734 34.634 9.79606C35.3524 10.0248 35.9573 10.2154 36.4111 10.406V10.5584M15.8424 10.0629C15.8424 9.41487 16.0315 8.80497 16.3717 8.27131C16.9767 7.39457 17.9598 6.86091 19.0184 6.82279C20.1906 6.82279 21.287 7.47081 21.8542 8.53814C22.2323 9.26239 22.3457 10.101 22.1567 10.9015L22.0811 11.1683C21.9298 11.5114 21.7408 11.8164 21.5517 12.0832L21.4383 12.2357L21.3249 12.35C20.0771 13.6079 18.0354 13.6079 16.7877 12.35C16.6742 12.2357 16.5608 12.1213 16.4852 12.0069L16.3339 11.8164C15.9936 11.2827 15.8424 10.6728 15.8424 10.0629ZM23.1397 22.7946C22.8373 22.7946 22.1945 22.7564 21.7786 22.7183H21.6273C21.2492 22.7183 20.8333 22.6802 20.4552 22.6802C20.1149 22.6802 19.7746 22.6802 19.3965 22.6802H19.0184H18.8672H18.3379C17.9598 22.6802 17.6195 22.6802 17.2414 22.6802C17.0523 22.6802 16.8633 22.6802 16.712 22.6802H16.1827L14.9728 22.7564C14.8593 22.4896 14.7837 22.2228 14.7459 21.956C14.6703 21.5366 14.6325 21.0792 14.6703 20.6599C14.7081 20.355 14.7459 20.0881 14.8593 19.8213C14.9728 19.402 15.1618 19.0208 15.4265 18.6777C16.2583 17.4579 17.6195 16.6956 19.0941 16.6956C21.4761 16.6956 23.4422 18.6777 23.4422 21.1555C23.4422 21.6891 23.3288 22.2609 23.1397 22.7946ZM36.9026 7.47081C35.5792 5.60299 34.2559 3.69705 32.8569 1.90547C26.8829 -0.0767106 20.1906 -0.229186 13.8763 0.190121C10.9649 0.418834 8.09135 1.06685 5.25559 1.79111C4.00786 3.43022 0.7562 8.04259 0 9.0718C0.18905 14.5609 0.52934 20.05 1.5124 25.4629C12.1748 22.4134 25.8621 22.4134 36.5245 25.4629V25.4248C37.2429 21.346 37.621 17.153 37.8478 12.998C37.9235 11.702 37.9613 10.3297 37.9991 9.03368C38.0369 9.0718 36.9026 7.47081 36.9026 7.47081ZM29.454 33.5059C29.1137 33.3916 28.9247 33.8109 29.0759 34.0396C29.1515 34.154 29.454 34.1921 29.6053 34.2302L29.7187 33.5441C29.7565 33.5822 29.454 33.5059 29.454 33.5059ZM29.6431 26.8352C29.5674 26.8352 29.4918 26.797 29.4162 26.797L29.1893 26.7589L28.8869 26.7208C28.8112 26.7208 28.6978 26.7208 28.6222 26.7208C28.5466 26.7589 28.4331 26.7589 28.3575 26.797C28.2819 26.8352 28.2063 26.9114 28.1685 26.9876C28.1307 27.0639 28.0928 27.1401 28.055 27.2545C28.0172 27.3688 28.055 27.5213 28.0928 27.5975C28.1307 27.6738 28.1685 27.7119 28.2063 27.7881C28.3197 27.9025 28.5088 28.0168 28.6978 28.0168L29.6053 28.1312L29.7565 28.1693V28.1312C29.7565 28.055 29.7943 27.9406 29.7943 27.8644L29.8321 27.6357L29.8699 27.3307L29.9077 27.102L29.9455 26.8352H29.6431ZM29.6431 26.8352C29.5674 26.8352 29.4918 26.797 29.4162 26.797L29.1893 26.7589L28.8869 26.7208C28.8112 26.7208 28.6978 26.7208 28.6222 26.7208C28.5466 26.7589 28.4331 26.7589 28.3575 26.797C28.2819 26.8352 28.2063 26.9114 28.1685 26.9876C28.1307 27.0639 28.0928 27.1401 28.055 27.2545C28.0172 27.3688 28.055 27.5213 28.0928 27.5975C28.1307 27.6738 28.1685 27.7119 28.2063 27.7881C28.3197 27.9025 28.5088 28.0168 28.6978 28.0168L29.6053 28.1312L29.7565 28.1693V28.1312C29.7565 28.055 29.7943 27.9406 29.7943 27.8644L29.8321 27.6357L29.8699 27.3307L29.9077 27.102L29.9455 26.8352H29.6431ZM29.454 33.5059C29.1137 33.3916 28.9247 33.8109 29.0759 34.0396C29.1515 34.154 29.454 34.1921 29.6053 34.2302L29.7187 33.5441C29.7565 33.5822 29.454 33.5059 29.454 33.5059ZM25.7486 33.0104C25.6352 32.8198 25.2571 32.8579 25.1059 32.8198L25.0302 33.5441C25.4083 33.6584 26.0511 33.5441 25.7486 33.0104ZM29.454 33.5059C29.1137 33.3916 28.9625 33.8109 29.0759 34.0396C29.1515 34.154 29.454 34.1921 29.6053 34.2302L29.7187 33.5441C29.7565 33.5822 29.454 33.5059 29.454 33.5059ZM29.6431 26.8352C29.5674 26.8352 29.4918 26.797 29.4162 26.797L29.1893 26.7589L28.8869 26.7208C28.8112 26.7208 28.6978 26.7208 28.6222 26.7208C28.5466 26.7589 28.4331 26.7589 28.3575 26.797C28.2819 26.8352 28.2063 26.9114 28.1685 26.9876C28.1307 27.0639 28.0928 27.1401 28.055 27.2545C28.0172 27.3688 28.055 27.5213 28.0928 27.5975C28.1307 27.6738 28.1685 27.7119 28.2063 27.7881C28.3197 27.9025 28.5088 28.0168 28.6978 28.0168L29.6053 28.1312L29.7565 28.1693V28.1312C29.7565 28.055 29.7943 27.9406 29.7943 27.8644L29.8321 27.6357L29.8699 27.3307L29.9077 27.102L29.9455 26.8352H29.6431ZM29.6431 26.8352C29.5674 26.8352 29.4918 26.797 29.4162 26.797L29.1893 26.7589L28.8869 26.7208C28.8112 26.7208 28.6978 26.7208 28.6222 26.7208C28.5466 26.7589 28.4331 26.7589 28.3575 26.797C28.2819 26.8352 28.2063 26.9114 28.1685 26.9876C28.1307 27.0639 28.0928 27.1401 28.055 27.2545C28.0172 27.3688 28.055 27.5213 28.0928 27.5975C28.1307 27.6738 28.1685 27.7119 28.2063 27.7881C28.3197 27.9025 28.5088 28.0168 28.6978 28.0168L29.6053 28.1312L29.7565 28.1693V28.1312C29.7565 28.055 29.7943 27.9406 29.7943 27.8644L29.8321 27.6357L29.8699 27.3307L29.9077 27.102L29.9455 26.8352H29.6431ZM29.454 33.5059C29.1137 33.3916 28.9247 33.8109 29.0759 34.0396C29.1515 34.154 29.454 34.1921 29.6053 34.2302L29.7187 33.5441C29.7565 33.5822 29.454 33.5059 29.454 33.5059ZM29.454 33.5059C29.1137 33.3916 28.9625 33.8109 29.0759 34.0396C29.1515 34.154 29.454 34.1921 29.6053 34.2302L29.7187 33.5441C29.7565 33.5822 29.454 33.5059 29.454 33.5059ZM29.6431 26.8352C29.5674 26.8352 29.4918 26.797 29.4162 26.797L29.1893 26.7589L28.8869 26.7208C28.8112 26.7208 28.6978 26.7208 28.6222 26.7208C28.5466 26.7589 28.4331 26.7589 28.3575 26.797C28.2819 26.8352 28.2063 26.9114 28.1685 26.9876C28.1307 27.0639 28.0928 27.1401 28.055 27.2545C28.0172 27.3688 28.055 27.5213 28.0928 27.5975C28.1307 27.6738 28.1685 27.7119 28.2063 27.7881C28.3197 27.9025 28.5088 28.0168 28.6978 28.0168L29.6053 28.1312L29.7565 28.1693V28.1312C29.7565 28.055 29.7943 27.9406 29.7943 27.8644L29.8321 27.6357L29.8699 27.3307L29.9077 27.102L29.9455 26.8352H29.6431ZM29.6431 26.8352C29.5674 26.8352 29.4918 26.797 29.4162 26.797L29.1893 26.7589L28.8869 26.7208C28.8112 26.7208 28.6978 26.7208 28.6222 26.7208C28.5466 26.7589 28.4331 26.7589 28.3575 26.797C28.2819 26.8352 28.2063 26.9114 28.1685 26.9876C28.1307 27.0639 28.0928 27.1401 28.055 27.2545C28.0172 27.3688 28.055 27.5213 28.0928 27.5975C28.1307 27.6738 28.1685 27.7119 28.2063 27.7881C28.3197 27.9025 28.5088 28.0168 28.6978 28.0168L29.6053 28.1312L29.7565 28.1693V28.1312C29.7565 28.055 29.7943 27.9406 29.7943 27.8644L29.8321 27.6357L29.8699 27.3307L29.9077 27.102L29.9455 26.8352H29.6431ZM29.454 33.5059C29.1137 33.3916 28.9247 33.8109 29.0759 34.0396C29.1515 34.154 29.454 34.1921 29.6053 34.2302L29.7187 33.5441C29.7565 33.5822 29.454 33.5059 29.454 33.5059ZM8.73412 33.6584L8.62069 34.497L9.15003 34.3827L8.73412 33.6584ZM29.454 33.5059C29.1137 33.3916 28.9625 33.8109 29.0759 34.0396C29.1515 34.154 29.454 34.1921 29.6053 34.2302L29.7187 33.5441C29.7565 33.5822 29.454 33.5059 29.454 33.5059ZM29.6431 26.8352C29.5674 26.8352 29.4918 26.797 29.4162 26.797L29.1893 26.7589L28.8869 26.7208C28.8112 26.7208 28.6978 26.7208 28.6222 26.7208C28.5466 26.7589 28.4331 26.7589 28.3575 26.797C28.2819 26.8352 28.2063 26.9114 28.1685 26.9876C28.1307 27.0639 28.0928 27.1401 28.055 27.2545C28.0172 27.3688 28.055 27.5213 28.0928 27.5975C28.1307 27.6738 28.1685 27.7119 28.2063 27.7881C28.3197 27.9025 28.5088 28.0168 28.6978 28.0168L29.6053 28.1312L29.7565 28.1693V28.1312C29.7565 28.055 29.7943 27.9406 29.7943 27.8644L29.8321 27.6357L29.8699 27.3307L29.9077 27.102L29.9455 26.8352H29.6431ZM29.6431 26.8352C29.5674 26.8352 29.4918 26.797 29.4162 26.797L29.1893 26.7589L28.8869 26.7208C28.8112 26.7208 28.6978 26.7208 28.6222 26.7208C28.5466 26.7589 28.4331 26.7589 28.3575 26.797C28.2819 26.8352 28.2063 26.9114 28.1685 26.9876C28.1307 27.0639 28.0928 27.1401 28.055 27.2545C28.0172 27.3688 28.055 27.5213 28.0928 27.5975C28.1307 27.6738 28.1685 27.7119 28.2063 27.7881C28.3197 27.9025 28.5088 28.0168 28.6978 28.0168L29.6053 28.1312L29.7565 28.1693V28.1312C29.7565 28.055 29.7943 27.9406 29.7943 27.8644L29.8321 27.6357L29.8699 27.3307L29.9077 27.102L29.9455 26.8352H29.6431ZM29.454 33.5059C29.1137 33.3916 28.9247 33.8109 29.0759 34.0396C29.1515 34.154 29.454 34.1921 29.6053 34.2302L29.7187 33.5441C29.7565 33.5822 29.454 33.5059 29.454 33.5059ZM29.454 33.5059C29.1137 33.3916 28.9625 33.8109 29.0759 34.0396C29.1515 34.154 29.454 34.1921 29.6053 34.2302L29.7187 33.5441C29.7565 33.5822 29.454 33.5059 29.454 33.5059ZM29.6431 26.8352C29.5674 26.8352 29.4918 26.797 29.4162 26.797L29.1893 26.7589L28.8869 26.7208C28.8112 26.7208 28.6978 26.7208 28.6222 26.7208C28.5466 26.7589 28.4331 26.7589 28.3575 26.797C28.2819 26.8352 28.2063 26.9114 28.1685 26.9876C28.1307 27.0639 28.0928 27.1401 28.055 27.2545C28.0172 27.3688 28.055 27.5213 28.0928 27.5975C28.1307 27.6738 28.1685 27.7119 28.2063 27.7881C28.3197 27.9025 28.5088 28.0168 28.6978 28.0168L29.6053 28.1312L29.7565 28.1693V28.1312C29.7565 28.055 29.7943 27.9406 29.7943 27.8644L29.8321 27.6357L29.8699 27.3307L29.9077 27.102L29.9455 26.8352H29.6431ZM29.6431 26.8352C29.5674 26.8352 29.4918 26.797 29.4162 26.797L29.1893 26.7589L28.8869 26.7208C28.8112 26.7208 28.6978 26.7208 28.6222 26.7208C28.5466 26.7589 28.4331 26.7589 28.3575 26.797C28.2819 26.8352 28.2063 26.9114 28.1685 26.9876C28.1307 27.0639 28.0928 27.1401 28.055 27.2545C28.0172 27.3688 28.055 27.5213 28.0928 27.5975C28.1307 27.6738 28.1685 27.7119 28.2063 27.7881C28.3197 27.9025 28.5088 28.0168 28.6978 28.0168L29.6053 28.1312L29.7565 28.1693V28.1312C29.7565 28.055 29.7943 27.9406 29.7943 27.8644L29.8321 27.6357L29.8699 27.3307L29.9077 27.102L29.9455 26.8352H29.6431ZM29.454 33.5059C29.1137 33.3916 28.9247 33.8109 29.0759 34.0396C29.1515 34.154 29.454 34.1921 29.6053 34.2302L29.7187 33.5441C29.7565 33.5822 29.454 33.5059 29.454 33.5059ZM10.9649 33.1629C10.8515 33.0866 10.549 33.1629 10.3978 33.201L10.4734 33.7347C10.8137 33.7347 11.343 33.4678 10.9649 33.1629ZM10.9271 33.9634L10.549 34.0396L10.6246 34.6114C10.7759 34.5733 11.1161 34.5733 11.2296 34.4589C11.343 34.2302 11.1918 33.8871 10.9271 33.9634ZM29.454 33.5059C29.1137 33.3916 28.9625 33.8109 29.0759 34.0396C29.1515 34.154 29.454 34.1921 29.6053 34.2302L29.7187 33.5441C29.7565 33.5822 29.454 33.5059 29.454 33.5059ZM29.6431 26.8352C29.5674 26.8352 29.4918 26.797 29.4162 26.797L29.1893 26.7589L28.8869 26.7208C28.8112 26.7208 28.6978 26.7208 28.6222 26.7208C28.5466 26.7589 28.4331 26.7589 28.3575 26.797C28.2819 26.8352 28.2063 26.9114 28.1685 26.9876C28.1307 27.0639 28.0928 27.1401 28.055 27.2545C28.0172 27.3688 28.055 27.5213 28.0928 27.5975C28.1307 27.6738 28.1685 27.7119 28.2063 27.7881C28.3197 27.9025 28.5088 28.0168 28.6978 28.0168L29.6053 28.1312L29.7565 28.1693V28.1312C29.7565 28.055 29.7943 27.9406 29.7943 27.8644L29.8321 27.6357L29.8699 27.3307L29.9077 27.102L29.9455 26.8352H29.6431ZM29.6431 26.8352C29.5674 26.8352 29.4918 26.797 29.4162 26.797L29.1893 26.7589L28.8869 26.7208C28.8112 26.7208 28.6978 26.7208 28.6222 26.7208C28.5466 26.7589 28.4331 26.7589 28.3575 26.797C28.2819 26.8352 28.2063 26.9114 28.1685 26.9876C28.1307 27.0639 28.0928 27.1401 28.055 27.2545C28.0172 27.3688 28.055 27.5213 28.0928 27.5975C28.1307 27.6738 28.1685 27.7119 28.2063 27.7881C28.3197 27.9025 28.5088 28.0168 28.6978 28.0168L29.6053 28.1312L29.7565 28.1693V28.1312C29.7565 28.055 29.7943 27.9406 29.7943 27.8644L29.8321 27.6357L29.8699 27.3307L29.9077 27.102L29.9455 26.8352H29.6431ZM29.454 33.5059C29.1137 33.3916 28.9247 33.8109 29.0759 34.0396C29.1515 34.154 29.454 34.1921 29.6053 34.2302L29.7187 33.5441C29.7565 33.5822 29.454 33.5059 29.454 33.5059ZM10.9649 33.1629C10.8515 33.0866 10.549 33.1629 10.3978 33.201L10.4734 33.7347C10.8137 33.7347 11.343 33.4678 10.9649 33.1629ZM10.9649 33.1629C10.8515 33.0866 10.549 33.1629 10.3978 33.201L10.4734 33.7347C10.8137 33.7347 11.343 33.4678 10.9649 33.1629ZM15.0862 33.3154C14.8215 31.8287 13.6872 33.1248 14.33 34.0015C14.7837 34.4589 15.2374 33.849 15.0862 33.3154ZM29.454 33.5059C29.1137 33.3916 28.9625 33.8109 29.0759 34.0396C29.1515 34.154 29.454 34.1921 29.6053 34.2302L29.7187 33.5441C29.7565 33.5822 29.454 33.5059 29.454 33.5059ZM29.6431 26.8352C29.5674 26.8352 29.4918 26.797 29.4162 26.797L29.1893 26.7589L28.8869 26.7208C28.8112 26.7208 28.6978 26.7208 28.6222 26.7208C28.5466 26.7589 28.4331 26.7589 28.3575 26.797C28.2819 26.8352 28.2063 26.9114 28.1685 26.9876C28.1307 27.0639 28.0928 27.1401 28.055 27.2545C28.0172 27.3688 28.055 27.5213 28.0928 27.5975C28.1307 27.6738 28.1685 27.7119 28.2063 27.7881C28.3197 27.9025 28.5088 28.0168 28.6978 28.0168L29.6053 28.1312L29.7565 28.1693V28.1312C29.7565 28.055 29.7943 27.9406 29.7943 27.8644L29.8321 27.6357L29.8699 27.3307L29.9077 27.102L29.9455 26.8352H29.6431ZM29.6431 26.8352C29.5674 26.8352 29.4918 26.797 29.4162 26.797L29.1893 26.7589L28.8869 26.7208C28.8112 26.7208 28.6978 26.7208 28.6222 26.7208C28.5466 26.7589 28.4331 26.7589 28.3575 26.797C28.2819 26.8352 28.2063 26.9114 28.1685 26.9876C28.1307 27.0639 28.0928 27.1401 28.055 27.2545C28.0172 27.3688 28.055 27.5213 28.0928 27.5975C28.1307 27.6738 28.1685 27.7119 28.2063 27.7881C28.3197 27.9025 28.5088 28.0168 28.6978 28.0168L29.6053 28.1312L29.7565 28.1693V28.1312C29.7565 28.055 29.7943 27.9406 29.7943 27.8644L29.8321 27.6357L29.8699 27.3307L29.9077 27.102L29.9455 26.8352H29.6431ZM29.454 33.5059C29.1137 33.3916 28.9247 33.8109 29.0759 34.0396C29.1515 34.154 29.454 34.1921 29.6053 34.2302L29.7187 33.5441C29.7565 33.5822 29.454 33.5059 29.454 33.5059ZM10.9649 33.1629C10.8515 33.0866 10.549 33.1629 10.3978 33.201L10.4734 33.7347C10.8137 33.7347 11.343 33.4678 10.9649 33.1629ZM29.0759 33.7728C28.9625 34.154 29.3784 34.1921 29.6431 34.2302L29.7565 33.5441C29.4918 33.5059 29.1137 33.3916 29.0759 33.7728ZM29.4162 26.797L29.1515 26.7589L28.849 26.7208C28.7734 26.7208 28.66 26.7208 28.5844 26.7208C28.5088 26.7589 28.3953 26.7589 28.3197 26.797C28.2441 26.8352 28.1685 26.9114 28.1307 26.9876C28.0928 27.0639 28.055 27.1401 28.0172 27.2545C27.9794 27.3688 28.0172 27.5213 28.055 27.5975C28.0928 27.6738 28.1307 27.7119 28.1685 27.7881C28.2819 27.9025 28.4709 28.0168 28.66 28.0168L29.5674 28.1312L29.7187 28.1693V28.1312C29.7187 28.055 29.7565 27.9406 29.7565 27.8644L29.7943 27.6357L29.8321 27.3307L29.8699 27.102L29.9077 26.8352L29.6053 26.797C29.5674 26.8352 29.4918 26.8352 29.4162 26.797ZM31.4958 26.0728C31.1933 27.8262 30.8908 29.6178 30.5883 31.4094C30.2102 31.3332 29.6809 31.2569 29.265 31.1807C29.3406 30.6089 29.4918 29.8465 29.5674 29.2366C29.454 29.2366 28.9625 29.1604 28.8869 29.1223C28.3575 29.6941 27.866 30.304 27.3745 30.8757C26.8829 30.8376 26.4292 30.7614 25.9377 30.7233C26.5804 29.9609 26.9585 29.4654 27.5635 28.7792C26.0889 28.055 26.5426 25.7678 28.1685 25.6154C29.265 25.5772 30.3993 25.9203 31.4958 26.0728ZM29.8699 35.45L29.4162 35.3738L29.5674 34.6114L29.2272 34.5352L28.6978 35.2213L28.2441 35.1451L28.8869 34.3064C28.5466 34.0396 28.6222 33.4297 28.9625 33.2391C29.265 33.0485 29.9833 33.2772 30.3236 33.3154C30.2858 33.3154 29.8699 35.45 29.8699 35.45ZM28.9247 38.004C26.5426 37.6609 24.1606 37.3941 21.7786 37.2416C22.1945 37.3941 22.6104 37.5847 22.9885 37.8134C24.8412 37.9658 26.6939 38.1564 28.5466 38.4233C28.2441 38.7663 27.9038 39.1094 27.6013 39.4144C26.5804 39.3 25.5596 39.1856 24.5387 39.0713C24.6899 39.2238 24.8412 39.4144 24.9546 39.605C25.673 39.6812 26.4292 39.7574 27.1476 39.8718C26.8451 40.1386 26.5804 40.4054 26.3158 40.6342C26.0133 40.596 25.7486 40.5579 25.4461 40.5198C25.5218 40.6723 25.5974 40.901 25.6352 41.0153L25.8242 41.0535C24.5387 42.197 23.1775 43.2644 21.7408 44.1792C21.5139 44.3317 21.287 44.446 21.098 44.5604C20.9468 44.6366 20.6443 44.8272 20.4552 44.9035C20.304 44.9797 20.0771 45.0941 19.9259 45.1703C19.8881 45.1703 19.8503 45.2084 19.8503 45.2084C19.6612 45.2847 19.4344 45.3609 19.2453 45.399C18.8294 45.4752 18.4135 45.2847 18.0732 45.1322C18.0354 45.1322 17.9598 45.0941 17.8841 45.0559C17.5817 44.9035 17.2792 44.751 17.0145 44.5985C16.7877 44.446 16.2961 44.1792 16.0693 44.0267C16.0315 43.9886 15.8424 43.8743 15.8046 43.8361C14.5569 42.9975 13.3847 42.0446 12.2883 41.0535L12.4773 41.0153C12.5151 40.8629 12.5907 40.6723 12.6664 40.5198C12.3639 40.5579 12.0614 40.596 11.7967 40.6342C11.6077 40.4436 11.1918 40.0624 11.0027 39.8718C11.6833 39.7955 12.4017 39.7193 13.1957 39.605C13.3091 39.4144 13.4604 39.2238 13.6116 39.0713C12.4395 39.1856 11.4186 39.3 10.549 39.4144C10.2465 39.1094 9.86842 38.6901 9.56594 38.4233C10.8893 38.2327 12.8176 38.004 15.124 37.8134C15.5021 37.5847 15.918 37.3941 16.3339 37.2416C13.6872 37.3941 10.5868 37.7753 9.18784 38.004C8.88536 37.6609 8.50726 37.2797 8.24259 36.8985C15.3887 35.45 22.8373 35.4881 29.9834 36.8985C29.5674 37.2797 29.265 37.6609 28.9247 38.004ZM8.05353 35.4119L8.43164 33.1248L8.84755 33.0485L10.0197 35.0307L9.56594 35.1069L9.33908 34.6876L8.58288 34.8401L8.50726 35.2975C8.50726 35.3356 8.05353 35.4119 8.05353 35.4119ZM10.6246 32.7817C11.2674 32.553 11.8723 33.3535 11.2674 33.7347C11.7211 33.7347 11.8345 34.3827 11.5699 34.6495C11.343 34.9545 10.549 34.9545 10.2087 35.0307L9.90623 32.896L10.6246 32.7817ZM13.0445 34.6495L12.5907 34.6876L12.4017 32.896L11.7589 32.9723L11.7211 32.6292L13.4604 32.4386L13.4982 32.7817L12.8554 32.8579C12.8176 32.8579 13.0445 34.6495 13.0445 34.6495ZM7.37295 30.304C7.14609 28.8936 6.88142 27.4451 6.65456 26.0347C7.1839 25.9584 7.67544 25.8441 8.20478 25.8059C8.88536 26.6446 9.52813 27.5213 10.1331 28.398C10.5112 27.4069 10.9271 26.3777 11.3808 25.4248C11.8723 25.3485 12.4017 25.3485 12.8932 25.2723C12.8932 25.3104 12.8932 25.3104 12.931 25.3104C13.0823 27.0639 13.2335 28.8936 13.3847 30.647C12.931 30.6852 12.5151 30.7233 12.0614 30.7614C11.948 29.6941 11.8345 28.5886 11.7211 27.5594C11.3808 28.3599 11.0405 29.2366 10.7002 30.0371C10.6246 30.0371 10.0575 30.1134 9.98185 30.1134C9.45251 29.3891 8.92317 28.6649 8.39383 27.9787C8.54507 29.046 8.69631 30.1134 8.84755 31.1807C8.46945 31.2569 7.94011 31.3332 7.562 31.4094C7.48638 31.0282 7.41076 30.647 7.37295 30.304ZM14.5569 32.2861C15.8046 32.1337 15.9558 34.4208 14.7459 34.497C13.4982 34.6495 13.3091 32.3624 14.5569 32.2861ZM17.6573 34.3064H17.2036L17.1658 32.8579L16.3717 34.3446H15.918L15.8424 32.1718H16.2961L16.3717 33.6203L17.1658 32.1337L17.6195 32.0955L17.6573 34.3064ZM14.1788 25.1579C14.6325 25.1198 15.124 25.0817 15.5777 25.0817C15.6155 26.2253 15.6912 27.4069 15.729 28.5505C16.5986 27.3307 17.506 26.149 18.4513 25.0055H19.51C19.51 26.797 19.4722 28.6267 19.4722 30.4183C19.0941 30.4183 18.5269 30.4183 18.1488 30.4183C18.111 29.3129 18.111 28.1693 18.111 27.0258C17.6951 27.5594 17.2792 28.055 16.9011 28.5886C16.4474 29.1985 15.9558 29.8847 15.5021 30.4946C15.0862 30.4946 14.8971 30.5327 14.4812 30.5708C14.3678 28.7792 14.2544 26.9495 14.1409 25.196H14.1788M20.304 32.1337V34.3064H19.8503C19.8503 33.9253 19.8881 33.0485 19.8881 32.7055L19.3209 34.3064H19.0184L18.4513 32.7055C18.4513 33.0866 18.4891 33.9634 18.4891 34.3064H18.0354V32.1337H18.6025L19.1319 33.6965L19.699 32.1337C19.7368 32.1337 20.304 32.1337 20.304 32.1337ZM20.7577 32.1718L22.497 32.248L22.3835 34.4208L21.9298 34.3827L22.0054 32.5911L21.1358 32.553L21.0602 34.3446L20.6065 34.3064C20.6821 34.3446 20.7577 32.1718 20.7577 32.1718ZM24.1606 33.2772L24.1228 33.6203L23.291 33.5441L23.2532 34.1158L24.2362 34.1921L24.1984 34.5733L22.7616 34.4589L22.9507 32.2861L24.3875 32.4005L24.3497 32.7817L23.3666 32.7055L23.3288 33.201L24.1606 33.2772ZM25.5596 32.5149C26.8829 32.7817 26.2023 34.3064 24.9924 33.849L24.9168 34.6114L24.4631 34.5733L24.7278 32.4005L25.5596 32.5149ZM20.6443 29.2366C21.5139 28.703 21.4761 26.0347 21.703 25.0436C23.0263 25.0817 24.3875 25.196 25.7108 25.3104C25.5596 27.0639 25.3705 28.9317 25.2193 30.6852C24.8034 30.647 24.3497 30.6089 23.8959 30.5708C24.0094 29.1223 24.085 27.7119 24.1984 26.2634C23.8203 26.2253 23.3288 26.2253 22.9507 26.1871C22.8751 26.6827 22.7994 27.2545 22.686 27.75C22.497 29.1223 21.8164 30.6852 20.1906 30.4564C20.1906 30.1134 20.1527 29.6941 20.1527 29.351C20.3418 29.351 20.5308 29.3129 20.6443 29.2366ZM26.6939 32.6673L27.1476 32.7436L26.9207 34.154L27.9794 32.8579L28.4331 32.9342L28.0928 35.0688L27.6391 34.9926L27.866 33.5822L26.8073 34.8782L26.3536 34.802L26.6939 32.6673ZM35.9573 25.8441C27.9416 23.6332 19.4722 23.4045 11.2674 24.1287C8.01572 24.4718 4.68844 25.0055 1.58802 25.9584C2.30641 31.1807 4.99092 35.755 8.62069 39.4525C10.8137 41.6634 16.2583 47 19.3209 47C26.1645 44.2936 37.1673 33.0866 35.9573 25.8441ZM29.454 33.5059C29.1137 33.3916 28.9247 33.8109 29.0759 34.0396C29.1515 34.154 29.454 34.1921 29.6053 34.2302L29.7187 33.5441C29.7565 33.5822 29.454 33.5059 29.454 33.5059ZM29.6431 26.8352C29.5674 26.8352 29.4918 26.797 29.4162 26.797L29.1893 26.7589L28.8869 26.7208C28.8112 26.7208 28.6978 26.7208 28.6222 26.7208C28.5466 26.7589 28.4331 26.7589 28.3575 26.797C28.2819 26.8352 28.2063 26.9114 28.1685 26.9876C28.1307 27.0639 28.0928 27.1401 28.055 27.2545C28.0172 27.3688 28.055 27.5213 28.0928 27.5975C28.1307 27.6738 28.1685 27.7119 28.2063 27.7881C28.3197 27.9025 28.5088 28.0168 28.6978 28.0168L29.6053 28.1312L29.7565 28.1693V28.1312C29.7565 28.055 29.7943 27.9406 29.7943 27.8644L29.8321 27.6357L29.8699 27.3307L29.9077 27.102L29.9455 26.8352H29.6431ZM29.6431 26.8352C29.5674 26.8352 29.4918 26.797 29.4162 26.797L29.1893 26.7589L28.8869 26.7208C28.8112 26.7208 28.6978 26.7208 28.6222 26.7208C28.5466 26.7589 28.4331 26.7589 28.3575 26.797C28.2819 26.8352 28.2063 26.9114 28.1685 26.9876C28.1307 27.0639 28.0928 27.1401 28.055 27.2545C28.0172 27.3688 28.055 27.5213 28.0928 27.5975C28.1307 27.6738 28.1685 27.7119 28.2063 27.7881C28.3197 27.9025 28.5088 28.0168 28.6978 28.0168L29.6053 28.1312L29.7565 28.1693V28.1312C29.7565 28.055 29.7943 27.9406 29.7943 27.8644L29.8321 27.6357L29.8699 27.3307L29.9077 27.102L29.9455 26.8352H29.6431ZM29.454 33.5059C29.1137 33.3916 28.9247 33.8109 29.0759 34.0396C29.1515 34.154 29.454 34.1921 29.6053 34.2302L29.7187 33.5441C29.7565 33.5822 29.454 33.5059 29.454 33.5059ZM10.9649 33.1629C10.8515 33.0866 10.549 33.1629 10.3978 33.201L10.4734 33.7347C10.8137 33.7347 11.343 33.4678 10.9649 33.1629ZM29.454 33.5059C29.1137 33.3916 28.9247 33.8109 29.0759 34.0396C29.1515 34.154 29.454 34.1921 29.6053 34.2302L29.7187 33.5441C29.7565 33.5822 29.454 33.5059 29.454 33.5059ZM29.6431 26.8352C29.5674 26.8352 29.4918 26.797 29.4162 26.797L29.1893 26.7589L28.8869 26.7208C28.8112 26.7208 28.6978 26.7208 28.6222 26.7208C28.5466 26.7589 28.4331 26.7589 28.3575 26.797C28.2819 26.8352 28.2063 26.9114 28.1685 26.9876C28.1307 27.0639 28.0928 27.1401 28.055 27.2545C28.0172 27.3688 28.055 27.5213 28.0928 27.5975C28.1307 27.6738 28.1685 27.7119 28.2063 27.7881C28.3197 27.9025 28.5088 28.0168 28.6978 28.0168L29.6053 28.1312L29.7565 28.1693V28.1312C29.7565 28.055 29.7943 27.9406 29.7943 27.8644L29.8321 27.6357L29.8699 27.3307L29.9077 27.102L29.9455 26.8352H29.6431ZM29.6431 26.8352C29.5674 26.8352 29.4918 26.797 29.4162 26.797L29.1893 26.7589L28.8869 26.7208C28.8112 26.7208 28.6978 26.7208 28.6222 26.7208C28.5466 26.7589 28.4331 26.7589 28.3575 26.797C28.2819 26.8352 28.2063 26.9114 28.1685 26.9876C28.1307 27.0639 28.0928 27.1401 28.055 27.2545C28.0172 27.3688 28.055 27.5213 28.0928 27.5975C28.1307 27.6738 28.1685 27.7119 28.2063 27.7881C28.3197 27.9025 28.5088 28.0168 28.6978 28.0168L29.6053 28.1312L29.7565 28.1693V28.1312C29.7565 28.055 29.7943 27.9406 29.7943 27.8644L29.8321 27.6357L29.8699 27.3307L29.9077 27.102L29.9455 26.8352H29.6431ZM29.454 33.5059C29.1137 33.3916 28.9247 33.8109 29.0759 34.0396C29.1515 34.154 29.454 34.1921 29.6053 34.2302L29.7187 33.5441C29.7565 33.5822 29.454 33.5059 29.454 33.5059ZM29.454 33.5059C29.1137 33.3916 28.9247 33.8109 29.0759 34.0396C29.1515 34.154 29.454 34.1921 29.6053 34.2302L29.7187 33.5441C29.7565 33.5822 29.454 33.5059 29.454 33.5059ZM29.6431 26.8352C29.5674 26.8352 29.4918 26.797 29.4162 26.797L29.1893 26.7589L28.8869 26.7208C28.8112 26.7208 28.6978 26.7208 28.6222 26.7208C28.5466 26.7589 28.4331 26.7589 28.3575 26.797C28.2819 26.8352 28.2063 26.9114 28.1685 26.9876C28.1307 27.0639 28.0928 27.1401 28.055 27.2545C28.0172 27.3688 28.055 27.5213 28.0928 27.5975C28.1307 27.6738 28.1685 27.7119 28.2063 27.7881C28.3197 27.9025 28.5088 28.0168 28.6978 28.0168L29.6053 28.1312L29.7565 28.1693V28.1312C29.7565 28.055 29.7943 27.9406 29.7943 27.8644L29.8321 27.6357L29.8699 27.3307L29.9077 27.102L29.9455 26.8352H29.6431ZM29.6431 26.8352C29.5674 26.8352 29.4918 26.797 29.4162 26.797L29.1893 26.7589L28.8869 26.7208C28.8112 26.7208 28.6978 26.7208 28.6222 26.7208C28.5466 26.7589 28.4331 26.7589 28.3575 26.797C28.2819 26.8352 28.2063 26.9114 28.1685 26.9876C28.1307 27.0639 28.0928 27.1401 28.055 27.2545C28.0172 27.3688 28.055 27.5213 28.0928 27.5975C28.1307 27.6738 28.1685 27.7119 28.2063 27.7881C28.3197 27.9025 28.5088 28.0168 28.6978 28.0168L29.6053 28.1312L29.7565 28.1693V28.1312C29.7565 28.055 29.7943 27.9406 29.7943 27.8644L29.8321 27.6357L29.8699 27.3307L29.9077 27.102L29.9455 26.8352H29.6431ZM29.454 33.5059C29.1137 33.3916 28.9247 33.8109 29.0759 34.0396C29.1515 34.154 29.454 34.1921 29.6053 34.2302L29.7187 33.5441C29.7565 33.5822 29.454 33.5059 29.454 33.5059ZM29.454 33.5059C29.1137 33.3916 28.9247 33.8109 29.0759 34.0396C29.1515 34.154 29.454 34.1921 29.6053 34.2302L29.7187 33.5441C29.7565 33.5822 29.454 33.5059 29.454 33.5059ZM29.6431 26.8352C29.5674 26.8352 29.4918 26.797 29.4162 26.797L29.1893 26.7589L28.8869 26.7208C28.8112 26.7208 28.6978 26.7208 28.6222 26.7208C28.5466 26.7589 28.4331 26.7589 28.3575 26.797C28.2819 26.8352 28.2063 26.9114 28.1685 26.9876C28.1307 27.0639 28.0928 27.1401 28.055 27.2545C28.0172 27.3688 28.055 27.5213 28.0928 27.5975C28.1307 27.6738 28.1685 27.7119 28.2063 27.7881C28.3197 27.9025 28.5088 28.0168 28.6978 28.0168L29.6053 28.1312L29.7565 28.1693V28.1312C29.7565 28.055 29.7943 27.9406 29.7943 27.8644L29.8321 27.6357L29.8699 27.3307L29.9077 27.102L29.9455 26.8352H29.6431ZM29.6431 26.8352C29.5674 26.8352 29.4918 26.797 29.4162 26.797L29.1893 26.7589L28.8869 26.7208C28.8112 26.7208 28.6978 26.7208 28.6222 26.7208C28.5466 26.7589 28.4331 26.7589 28.3575 26.797C28.2819 26.8352 28.2063 26.9114 28.1685 26.9876C28.1307 27.0639 28.0928 27.1401 28.055 27.2545C28.0172 27.3688 28.055 27.5213 28.0928 27.5975C28.1307 27.6738 28.1685 27.7119 28.2063 27.7881C28.3197 27.9025 28.5088 28.0168 28.6978 28.0168L29.6053 28.1312L29.7565 28.1693V28.1312C29.7565 28.055 29.7943 27.9406 29.7943 27.8644L29.8321 27.6357L29.8699 27.3307L29.9077 27.102L29.9455 26.8352H29.6431ZM29.454 33.5059C29.1137 33.3916 28.9247 33.8109 29.0759 34.0396C29.1515 34.154 29.454 34.1921 29.6053 34.2302L29.7187 33.5441C29.7565 33.5822 29.454 33.5059 29.454 33.5059ZM29.454 33.5059C29.1137 33.3916 28.9625 33.8109 29.0759 34.0396C29.1515 34.154 29.454 34.1921 29.6053 34.2302L29.7187 33.5441C29.7565 33.5822 29.454 33.5059 29.454 33.5059ZM29.6431 26.8352C29.5674 26.8352 29.4918 26.797 29.4162 26.797L29.1893 26.7589L28.8869 26.7208C28.8112 26.7208 28.6978 26.7208 28.6222 26.7208C28.5466 26.7589 28.4331 26.7589 28.3575 26.797C28.2819 26.8352 28.2063 26.9114 28.1685 26.9876C28.1307 27.0639 28.0928 27.1401 28.055 27.2545C28.0172 27.3688 28.055 27.5213 28.0928 27.5975C28.1307 27.6738 28.1685 27.7119 28.2063 27.7881C28.3197 27.9025 28.5088 28.0168 28.6978 28.0168L29.6053 28.1312L29.7565 28.1693V28.1312C29.7565 28.055 29.7943 27.9406 29.7943 27.8644L29.8321 27.6357L29.8699 27.3307L29.9077 27.102L29.9455 26.8352H29.6431ZM29.6431 26.8352C29.5674 26.8352 29.4918 26.797 29.4162 26.797L29.1893 26.7589L28.8869 26.7208C28.8112 26.7208 28.6978 26.7208 28.6222 26.7208C28.5466 26.7589 28.4331 26.7589 28.3575 26.797C28.2819 26.8352 28.2063 26.9114 28.1685 26.9876C28.1307 27.0639 28.0928 27.1401 28.055 27.2545C28.0172 27.3688 28.055 27.5213 28.0928 27.5975C28.1307 27.6738 28.1685 27.7119 28.2063 27.7881C28.3197 27.9025 28.5088 28.0168 28.6978 28.0168L29.6053 28.1312L29.7565 28.1693V28.1312C29.7565 28.055 29.7943 27.9406 29.7943 27.8644L29.8321 27.6357L29.8699 27.3307L29.9077 27.102L29.9455 26.8352H29.6431ZM29.454 33.5059C29.1137 33.3916 28.9247 33.8109 29.0759 34.0396C29.1515 34.154 29.454 34.1921 29.6053 34.2302L29.7187 33.5441C29.7565 33.5822 29.454 33.5059 29.454 33.5059ZM29.454 33.5059C29.1137 33.3916 28.9625 33.8109 29.0759 34.0396C29.1515 34.154 29.454 34.1921 29.6053 34.2302L29.7187 33.5441C29.7565 33.5822 29.454 33.5059 29.454 33.5059ZM29.6431 26.8352C29.5674 26.8352 29.4918 26.797 29.4162 26.797L29.1893 26.7589L28.8869 26.7208C28.8112 26.7208 28.6978 26.7208 28.6222 26.7208C28.5466 26.7589 28.4331 26.7589 28.3575 26.797C28.2819 26.8352 28.2063 26.9114 28.1685 26.9876C28.1307 27.0639 28.0928 27.1401 28.055 27.2545C28.0172 27.3688 28.055 27.5213 28.0928 27.5975C28.1307 27.6738 28.1685 27.7119 28.2063 27.7881C28.3197 27.9025 28.5088 28.0168 28.6978 28.0168L29.6053 28.1312L29.7565 28.1693V28.1312C29.7565 28.055 29.7943 27.9406 29.7943 27.8644L29.8321 27.6357L29.8699 27.3307L29.9077 27.102L29.9455 26.8352H29.6431ZM29.6431 26.8352C29.5674 26.8352 29.4918 26.797 29.4162 26.797L29.1893 26.7589L28.8869 26.7208C28.8112 26.7208 28.6978 26.7208 28.6222 26.7208C28.5466 26.7589 28.4331 26.7589 28.3575 26.797C28.2819 26.8352 28.2063 26.9114 28.1685 26.9876C28.1307 27.0639 28.0928 27.1401 28.055 27.2545C28.0172 27.3688 28.055 27.5213 28.0928 27.5975C28.1307 27.6738 28.1685 27.7119 28.2063 27.7881C28.3197 27.9025 28.5088 28.0168 28.6978 28.0168L29.6053 28.1312L29.7565 28.1693V28.1312C29.7565 28.055 29.7943 27.9406 29.7943 27.8644L29.8321 27.6357L29.8699 27.3307L29.9077 27.102L29.9455 26.8352H29.6431ZM29.454 33.5059C29.1137 33.3916 28.9247 33.8109 29.0759 34.0396C29.1515 34.154 29.454 34.1921 29.6053 34.2302L29.7187 33.5441C29.7565 33.5822 29.454 33.5059 29.454 33.5059ZM29.454 33.5059C29.1137 33.3916 28.9625 33.8109 29.0759 34.0396C29.1515 34.154 29.454 34.1921 29.6053 34.2302L29.7187 33.5441C29.7565 33.5822 29.454 33.5059 29.454 33.5059ZM29.6431 26.8352C29.5674 26.8352 29.4918 26.797 29.4162 26.797L29.1893 26.7589L28.8869 26.7208C28.8112 26.7208 28.6978 26.7208 28.6222 26.7208C28.5466 26.7589 28.4331 26.7589 28.3575 26.797C28.2819 26.8352 28.2063 26.9114 28.1685 26.9876C28.1307 27.0639 28.0928 27.1401 28.055 27.2545C28.0172 27.3688 28.055 27.5213 28.0928 27.5975C28.1307 27.6738 28.1685 27.7119 28.2063 27.7881C28.3197 27.9025 28.5088 28.0168 28.6978 28.0168L29.6053 28.1312L29.7565 28.1693V28.1312C29.7565 28.055 29.7943 27.9406 29.7943 27.8644L29.8321 27.6357L29.8699 27.3307L29.9077 27.102L29.9455 26.8352H29.6431ZM29.6431 26.8352C29.5674 26.8352 29.4918 26.797 29.4162 26.797L29.1893 26.7589L28.8869 26.7208C28.8112 26.7208 28.6978 26.7208 28.6222 26.7208C28.5466 26.7589 28.4331 26.7589 28.3575 26.797C28.2819 26.8352 28.2063 26.9114 28.1685 26.9876C28.1307 27.0639 28.0928 27.1401 28.055 27.2545C28.0172 27.3688 28.055 27.5213 28.0928 27.5975C28.1307 27.6738 28.1685 27.7119 28.2063 27.7881C28.3197 27.9025 28.5088 28.0168 28.6978 28.0168L29.6053 28.1312L29.7565 28.1693V28.1312C29.7565 28.055 29.7943 27.9406 29.7943 27.8644L29.8321 27.6357L29.8699 27.3307L29.9077 27.102L29.9455 26.8352H29.6431ZM29.454 33.5059C29.1137 33.3916 28.9247 33.8109 29.0759 34.0396C29.1515 34.154 29.454 34.1921 29.6053 34.2302L29.7187 33.5441C29.7565 33.5822 29.454 33.5059 29.454 33.5059ZM29.6431 26.8352C29.5674 26.8352 29.4918 26.797 29.4162 26.797L29.1893 26.7589L28.8869 26.7208C28.8112 26.7208 28.6978 26.7208 28.6222 26.7208C28.5466 26.7589 28.4331 26.7589 28.3575 26.797C28.2819 26.8352 28.2063 26.9114 28.1685 26.9876C28.1307 27.0639 28.0928 27.1401 28.055 27.2545C28.0172 27.3688 28.055 27.5213 28.0928 27.5975C28.1307 27.6738 28.1685 27.7119 28.2063 27.7881C28.3197 27.9025 28.5088 28.0168 28.6978 28.0168L29.6053 28.1312L29.7565 28.1693V28.1312C29.7565 28.055 29.7943 27.9406 29.7943 27.8644L29.8321 27.6357L29.8699 27.3307L29.9077 27.102L29.9455 26.8352H29.6431ZM29.6431 26.8352C29.5674 26.8352 29.4918 26.797 29.4162 26.797L29.1893 26.7589L28.8869 26.7208C28.8112 26.7208 28.6978 26.7208 28.6222 26.7208C28.5466 26.7589 28.4331 26.7589 28.3575 26.797C28.2819 26.8352 28.2063 26.9114 28.1685 26.9876C28.1307 27.0639 28.0928 27.1401 28.055 27.2545C28.0172 27.3688 28.055 27.5213 28.0928 27.5975C28.1307 27.6738 28.1685 27.7119 28.2063 27.7881C28.3197 27.9025 28.5088 28.0168 28.6978 28.0168L29.6053 28.1312L29.7565 28.1693V28.1312C29.7565 28.055 29.7943 27.9406 29.7943 27.8644L29.8321 27.6357L29.8699 27.3307L29.9077 27.102L29.9455 26.8352H29.6431Z" fill="white"/>
</svg>
