<svg width="534" height="133" viewBox="0 0 534 133" fill="none" xmlns="http://www.w3.org/2000/svg">
    <rect x="0.5" y="0.5" width="533" height="132" rx="22.3718" fill="#0A0909" stroke="#363533"/>
    <g clip-path="url(#clip0_1003_924)">
        <path d="M60.9919 37.9932C48.3598 37.9932 38.1201 48.2329 38.1201 60.865C38.1201 67.1787 40.6783 72.8955 44.8158 77.0342C48.9545 81.1751 58.7047 87.1675 59.2765 93.4573C59.3623 94.4003 60.045 95.1726 60.9919 95.1726C61.9388 95.1726 62.6216 94.4003 62.7073 93.4573C63.2791 87.1675 73.0293 81.1751 77.168 77.0342C81.3055 72.8955 83.8637 67.1787 83.8637 60.865C83.8637 48.2329 73.624 37.9932 60.9919 37.9932Z" fill="#FF4433"/>
        <path d="M60.9934 68.8706C65.4145 68.8706 68.9985 65.2866 68.9985 60.8655C68.9985 56.4444 65.4145 52.8604 60.9934 52.8604C56.5723 52.8604 52.9883 56.4444 52.9883 60.8655C52.9883 65.2866 56.5723 68.8706 60.9934 68.8706Z" fill="white"/>
    </g>
    <path d="M123.98 63.2306H128.224V37.9932H122.04C115.823 37.9932 112.565 41.2925 112.565 46.1613C112.565 50.0448 114.349 52.336 117.552 54.6959L112 63.2306H116.599L122.783 53.6764L120.644 52.1871C118.04 50.377 116.776 48.9565 116.776 45.9092C116.776 43.2171 118.605 41.407 122.085 41.407H123.98V63.2306ZM205.93 63.5857C207.87 63.5857 209.233 63.2306 210.252 62.4631V58.9461C209.2 59.7022 207.936 60.1719 206.185 60.1719C203.193 60.1719 201.963 57.7776 201.963 54.0086C201.963 50.0448 203.481 48.0171 206.219 48.0171C207.837 48.0171 209.41 48.5899 210.252 49.1398V45.4739C209.377 44.9584 207.837 44.6032 205.764 44.6032C200.423 44.6032 197.641 48.5555 197.641 54.1117C197.641 60.2177 200.345 63.5857 205.93 63.5857ZM179.799 61.9934V58.4649C178.503 59.3814 176.32 60.1719 174.28 60.1719C171.222 60.1719 170.069 58.6941 169.892 55.6353H179.977V53.3556C179.977 46.9975 177.273 44.6032 173.084 44.6032C167.997 44.6032 165.57 48.6243 165.57 54.146C165.57 60.5041 168.595 63.5857 173.937 63.5857C176.597 63.5857 178.569 62.864 179.799 61.9934ZM193.153 63.2306H197.885L191.18 53.5274L197.087 44.9584H192.865L186.969 53.5274V44.9584H182.78V63.2306H186.969V54.3981L193.153 63.2306ZM164.55 59.8167H162.689V44.9584H150.499V46.5278C150.499 50.9842 150.222 56.758 148.748 59.8167H147.44V67.4006H151.308V63.2306H160.683V67.4006H164.55V59.8167ZM141.511 44.9584V52.1871H135.926V44.9584H131.737V63.2306H135.926V55.601H141.511V63.2306H145.689V44.9584H141.511ZM173.017 48.0171C175.089 48.0171 175.721 49.7928 175.721 52.084V52.4391H169.892C170.003 49.5408 171.011 48.0171 173.017 48.0171ZM158.511 59.8167H152.604C153.768 57.0559 154.089 52.084 154.089 48.9221V48.3723H158.511V59.8167ZM232.073 63.2306H237.026L228.349 49.9761L236.217 37.9932H231.895L224.338 49.6095V37.9932H220.093V63.2306H224.338V51.3852L232.073 63.2306ZM251.289 50.7665C251.289 46.3446 249.106 44.672 244.684 44.672C241.913 44.672 239.73 45.577 238.467 46.3445V49.9417C239.586 49.0596 242.046 48.1202 244.196 48.1202C246.191 48.1202 247.111 48.8419 247.111 50.8124V51.8205H246.435C240.041 51.8205 237.204 54.0086 237.204 57.7088C237.204 61.4091 239.376 63.4826 242.612 63.4826C245.072 63.4826 246.125 62.6464 246.934 61.7757H247.111C247.144 62.2454 247.288 62.864 247.421 63.2306H251.499C251.355 61.7413 251.289 60.2521 251.289 58.7628V50.7665ZM247.111 58.8659C246.579 59.6678 245.593 60.3208 244.119 60.3208C242.368 60.3208 241.481 59.3012 241.481 57.7432C241.481 55.6697 242.922 54.9136 246.512 54.9136H247.111V58.8659ZM258.525 44.9584H254.658V68.4889H258.836V61.0884C259.899 62.7151 261.44 63.5857 263.235 63.5857C267.302 63.5857 270.117 60.2177 270.117 54.0773C270.117 47.9713 267.38 44.6032 263.446 44.6032C261.473 44.6032 259.855 45.5426 258.736 47.3183L258.525 44.9584ZM262.182 60.1719C259.966 60.1719 258.836 58.3275 258.836 54.1117C258.836 49.8615 260.032 48.0171 262.393 48.0171C264.676 48.0171 265.795 49.8615 265.795 54.0773C265.795 58.3275 264.598 60.1719 262.182 60.1719ZM284.834 48.3723V44.9584H270.815V48.3723H275.735V63.2306H279.913V48.3723H284.834ZM287.294 44.9584V63.2306H293.655C297.766 63.2306 300.681 61.054 300.681 56.758C300.681 52.6911 298.077 50.5489 293.721 50.5489H291.472V44.9584H287.294ZM302.221 44.9584V63.2306H306.41V44.9584H302.221ZM293.411 59.8167H291.472V53.9628H293.511C295.306 53.9628 296.359 54.799 296.359 56.9069C296.359 59.0148 295.195 59.8167 293.411 59.8167Z" fill="white"/>
    <path d="M403.847 75.4548C401.551 75.4548 399.505 75.0325 397.707 74.1878C395.92 73.3431 394.501 72.1789 393.451 70.6953C392.4 69.2117 391.854 67.5114 391.81 65.5946H398.633C398.709 66.8833 399.25 67.9284 400.257 68.7297C401.264 69.5311 402.461 69.9318 403.847 69.9318C404.952 69.9318 405.926 69.6882 406.771 69.2008C407.627 68.7027 408.293 68.015 408.769 67.1378C409.256 66.2498 409.5 65.2318 409.5 64.0839C409.5 62.9143 409.251 61.8855 408.753 60.9975C408.266 60.1095 407.589 59.4164 406.722 58.9183C405.856 58.4201 404.865 58.1656 403.75 58.1548C402.775 58.1548 401.827 58.3551 400.907 58.7558C399.997 59.1565 399.288 59.7034 398.779 60.3965L392.525 59.2756L394.101 41.7319H414.438V47.4824H399.9L399.039 55.8156H399.234C399.819 54.9926 400.701 54.3103 401.882 53.7689C403.062 53.2274 404.383 52.9567 405.845 52.9567C407.849 52.9567 409.636 53.4277 411.206 54.3699C412.776 55.3121 414.016 56.6062 414.926 58.2523C415.835 59.8875 416.285 61.7718 416.274 63.9052C416.285 66.1469 415.765 68.1395 414.715 69.8831C413.675 71.6158 412.218 72.9803 410.345 73.9766C408.482 74.9621 406.316 75.4548 403.847 75.4548ZM427.694 70.4516L427.515 72.2385C427.374 73.668 427.103 75.0921 426.703 76.5107C426.313 77.9402 425.901 79.2343 425.468 80.3931C425.046 81.5518 424.705 82.4615 424.445 83.1221H419.961C420.124 82.4831 420.346 81.5897 420.627 80.4418C420.909 79.3047 421.174 78.0268 421.423 76.6082C421.672 75.1895 421.829 73.7438 421.894 72.271L421.976 70.4516H427.694ZM445.66 75.731C442.866 75.7202 440.462 75.0325 438.447 73.668C436.444 72.3035 434.901 70.3271 433.818 67.7389C432.746 65.1506 432.215 62.0372 432.226 58.3985C432.226 54.7706 432.762 51.6788 433.834 49.123C434.917 46.5673 436.46 44.6234 438.464 43.2914C440.478 41.9485 442.877 41.2771 445.66 41.2771C448.443 41.2771 450.836 41.9485 452.84 43.2914C454.854 44.6342 456.402 46.5835 457.485 49.1393C458.568 51.6842 459.104 54.7706 459.094 58.3985C459.094 62.048 458.552 65.1669 457.469 67.7551C456.397 70.3433 454.859 72.3197 452.856 73.6842C450.852 75.0487 448.454 75.731 445.66 75.731ZM445.66 69.8993C447.566 69.8993 449.087 68.9409 450.224 67.0241C451.361 65.1073 451.925 62.2321 451.914 58.3985C451.914 55.8752 451.654 53.7743 451.134 52.0957C450.625 50.4172 449.899 49.1555 448.957 48.3108C448.026 47.4661 446.927 47.0438 445.66 47.0438C443.765 47.0438 442.248 47.9914 441.111 49.8865C439.974 51.7817 439.4 54.619 439.389 58.3985C439.389 60.9542 439.644 63.0876 440.153 64.7987C440.673 66.4989 441.404 67.7768 442.346 68.6323C443.288 69.477 444.393 69.8993 445.66 69.8993Z" fill="white"/>
    <path d="M373.209 87.4545V102H370.574V90.0185H370.489L367.087 92.1918V89.777L370.702 87.4545H373.209ZM376.902 102V100.097L381.952 95.1463C382.435 94.6586 382.837 94.2254 383.159 93.8466C383.481 93.4678 383.723 93.1009 383.884 92.7457C384.045 92.3906 384.125 92.0118 384.125 91.6094C384.125 91.1501 384.021 90.7571 383.812 90.4304C383.604 90.099 383.318 89.8433 382.953 89.6634C382.589 89.4834 382.174 89.3935 381.71 89.3935C381.232 89.3935 380.813 89.4929 380.453 89.6918C380.093 89.8859 379.814 90.1629 379.615 90.5227C379.421 90.8826 379.324 91.3111 379.324 91.8082H376.817C376.817 90.8849 377.027 90.0824 377.449 89.4006C377.87 88.7187 378.45 88.1908 379.189 87.8168C379.932 87.4427 380.785 87.2557 381.746 87.2557C382.721 87.2557 383.578 87.438 384.317 87.8026C385.055 88.1671 385.628 88.6667 386.036 89.3011C386.447 89.9356 386.653 90.66 386.653 91.4744C386.653 92.0189 386.549 92.554 386.341 93.0795C386.133 93.6051 385.766 94.1875 385.24 94.8267C384.719 95.4659 383.988 96.2401 383.045 97.1491L380.538 99.6989V99.7983H386.874V102H376.902ZM394.381 102.199C393.434 102.199 392.586 102.021 391.838 101.666C391.09 101.306 390.496 100.814 390.055 100.189C389.62 99.5639 389.388 98.849 389.359 98.044H391.916C391.964 98.6406 392.222 99.1283 392.69 99.5071C393.159 99.8812 393.723 100.068 394.381 100.068C394.897 100.068 395.356 99.9498 395.759 99.7131C396.161 99.4763 396.478 99.1473 396.71 98.7259C396.942 98.3045 397.056 97.8239 397.051 97.2841C397.056 96.7348 396.94 96.2472 396.703 95.821C396.466 95.3949 396.142 95.0611 395.73 94.8196C395.318 94.5734 394.845 94.4503 394.31 94.4503C393.874 94.4455 393.446 94.526 393.024 94.6918C392.603 94.8575 392.269 95.0753 392.023 95.3452L389.643 94.9545L390.403 87.4545H398.841V89.6562H392.584L392.165 93.5128H392.25C392.52 93.1955 392.901 92.9328 393.393 92.7244C393.886 92.5114 394.426 92.4048 395.013 92.4048C395.893 92.4048 396.679 92.6132 397.371 93.0298C398.062 93.4418 398.607 94.0099 399.004 94.7344C399.402 95.4588 399.601 96.2874 399.601 97.2202C399.601 98.1813 399.378 99.0384 398.933 99.7912C398.493 100.539 397.88 101.129 397.094 101.56C396.312 101.986 395.408 102.199 394.381 102.199ZM411.728 102.213C410.663 102.213 409.739 101.979 408.958 101.51C408.177 101.041 407.571 100.385 407.14 99.5426C406.714 98.6998 406.501 97.715 406.501 96.5881C406.501 95.4612 406.714 94.474 407.14 93.6264C407.571 92.7789 408.177 92.1207 408.958 91.652C409.739 91.1832 410.663 90.9489 411.728 90.9489C412.793 90.9489 413.717 91.1832 414.498 91.652C415.279 92.1207 415.883 92.7789 416.309 93.6264C416.74 94.474 416.955 95.4612 416.955 96.5881C416.955 97.715 416.74 98.6998 416.309 99.5426C415.883 100.385 415.279 101.041 414.498 101.51C413.717 101.979 412.793 102.213 411.728 102.213ZM411.742 100.153C412.32 100.153 412.803 99.9948 413.191 99.6776C413.579 99.3556 413.868 98.9247 414.058 98.3849C414.252 97.8452 414.349 97.2438 414.349 96.581C414.349 95.9134 414.252 95.3097 414.058 94.7699C413.868 94.2254 413.579 93.7921 413.191 93.4702C412.803 93.1482 412.32 92.9872 411.742 92.9872C411.15 92.9872 410.658 93.1482 410.265 93.4702C409.877 93.7921 409.585 94.2254 409.391 94.7699C409.202 95.3097 409.107 95.9134 409.107 96.581C409.107 97.2438 409.202 97.8452 409.391 98.3849C409.585 98.9247 409.877 99.3556 410.265 99.6776C410.658 99.9948 411.15 100.153 411.742 100.153ZM428.349 91.0909V100.082H430.018V105.509H427.504V102H419.137V91.0909H421.616V99.8906H425.892V91.0909H428.349ZM436.838 102.213C435.744 102.213 434.8 101.986 434.004 101.531C433.214 101.072 432.605 100.423 432.179 99.5852C431.753 98.7424 431.54 97.7505 431.54 96.6094C431.54 95.4872 431.753 94.5024 432.179 93.6548C432.61 92.8026 433.211 92.1397 433.983 91.6662C434.755 91.188 435.661 90.9489 436.703 90.9489C437.375 90.9489 438.01 91.0578 438.607 91.2756C439.208 91.4886 439.738 91.8201 440.197 92.2699C440.661 92.7197 441.026 93.2926 441.291 93.9886C441.556 94.6799 441.689 95.5038 441.689 96.4602V97.2486H432.747V95.5156H439.224C439.22 95.0232 439.113 94.5852 438.905 94.2017C438.696 93.8134 438.405 93.508 438.031 93.2855C437.662 93.063 437.231 92.9517 436.739 92.9517C436.213 92.9517 435.751 93.0795 435.354 93.3352C434.956 93.5862 434.646 93.9176 434.423 94.3295C434.205 94.7367 434.094 95.1842 434.089 95.6719V97.1847C434.089 97.8191 434.205 98.3636 434.438 98.8182C434.67 99.268 434.994 99.6136 435.411 99.8551C435.827 100.092 436.315 100.21 436.874 100.21C437.248 100.21 437.586 100.158 437.889 100.054C438.192 99.9451 438.455 99.7865 438.678 99.5781C438.9 99.3698 439.068 99.1117 439.182 98.804L441.582 99.0739C441.431 99.7083 441.142 100.262 440.716 100.736C440.295 101.205 439.755 101.569 439.097 101.83C438.438 102.085 437.686 102.213 436.838 102.213ZM451.357 95.4801V97.5895H445.547V95.4801H451.357ZM446.343 91.0909V102H443.864V91.0909H446.343ZM453.04 91.0909V102H450.569V91.0909H453.04ZM460.4 102.213C459.335 102.213 458.411 101.979 457.63 101.51C456.849 101.041 456.243 100.385 455.812 99.5426C455.386 98.6998 455.173 97.715 455.173 96.5881C455.173 95.4612 455.386 94.474 455.812 93.6264C456.243 92.7789 456.849 92.1207 457.63 91.652C458.411 91.1832 459.335 90.9489 460.4 90.9489C461.465 90.9489 462.388 91.1832 463.17 91.652C463.951 92.1207 464.555 92.7789 464.981 93.6264C465.412 94.474 465.627 95.4612 465.627 96.5881C465.627 97.715 465.412 98.6998 464.981 99.5426C464.555 100.385 463.951 101.041 463.17 101.51C462.388 101.979 461.465 102.213 460.4 102.213ZM460.414 100.153C460.992 100.153 461.475 99.9948 461.863 99.6776C462.251 99.3556 462.54 98.9247 462.729 98.3849C462.924 97.8452 463.021 97.2438 463.021 96.581C463.021 95.9134 462.924 95.3097 462.729 94.7699C462.54 94.2254 462.251 93.7921 461.863 93.4702C461.475 93.1482 460.992 92.9872 460.414 92.9872C459.822 92.9872 459.33 93.1482 458.937 93.4702C458.549 93.7921 458.257 94.2254 458.063 94.7699C457.874 95.3097 457.779 95.9134 457.779 96.581C457.779 97.2438 457.874 97.8452 458.063 98.3849C458.257 98.9247 458.549 99.3556 458.937 99.6776C459.33 99.9948 459.822 100.153 460.414 100.153ZM467.809 102V91.0909H470.38V95.4943H471.318L474.599 91.0909H477.696L473.654 96.446L477.738 102H474.627L471.637 97.8878H470.38V102H467.809Z" fill="#B9B9B9"/>
    <path d="M123.436 79.9248L126.003 87.8268H134.312L127.59 92.7105L130.158 100.613L123.436 95.7288L116.714 100.613L119.282 92.7105L112.56 87.8268H120.868L123.436 79.9248Z" fill="#F6C543"/>
    <path d="M150.119 79.9248L152.687 87.8268H160.996L154.274 92.7105L156.841 100.613L150.119 95.7288L143.398 100.613L145.965 92.7105L139.243 87.8268H147.552L150.119 79.9248Z" fill="#F6C543"/>
    <path d="M176.804 79.9248L179.372 87.8268H187.68L180.958 92.7105L183.526 100.613L176.804 95.7288L170.082 100.613L172.65 92.7105L165.928 87.8268H174.237L176.804 79.9248Z" fill="#F6C543"/>
    <path d="M203.487 79.9248L206.054 87.8268H214.363L207.641 92.7105L210.209 100.613L203.487 95.7288L196.765 100.613L199.332 92.7105L192.61 87.8268H200.919L203.487 79.9248Z" fill="#F6C543"/>
    <path d="M230.171 79.9248L232.739 87.8268H241.047L234.326 92.7105L236.893 100.613L230.171 95.7288L223.449 100.613L226.017 92.7105L219.295 87.8268H227.604L230.171 79.9248Z" fill="#F6C543"/>
    <defs>
        <clipPath id="clip0_1003_924">
            <rect width="60.9915" height="60.9915" fill="white" transform="translate(30.4961 34.1813)"/>
        </clipPath>
    </defs>
</svg>
