<svg width="1732" height="69" viewBox="0 0 1732 69" fill="none" xmlns="http://www.w3.org/2000/svg">
    <g clip-path="url(#clip0_1193_906)">
        <rect width="1732" height="115" fill="url(#paint0_linear_1193_906)"/>
        <g style="mix-blend-mode:overlay" filter="url(#filter0_f_1193_906)">
            <ellipse cx="263.5" cy="25" rx="311.5" ry="281" fill="#F6C543" fill-opacity="0.1"/>
        </g>
        <g style="mix-blend-mode:overlay" filter="url(#filter1_f_1193_906)">
            <ellipse cx="1532.5" cy="25" rx="311.5" ry="281" fill="#F6C543" fill-opacity="0.2"/>
        </g>
        <g style="mix-blend-mode:overlay" filter="url(#filter2_f_1193_906)">
            <ellipse cx="1162.5" rx="311.5" ry="281" fill="#FF2828" fill-opacity="0.4"/>
        </g>
        <path fill-rule="evenodd" clip-rule="evenodd" d="M759.323 -187.623L762.022 -192.461L757.472 -189.3L753.058 -191.338L755.52 -187.146L752.821 -182.308L757.371 -185.469L761.785 -183.431L759.323 -187.623ZM676.514 -96.2394L679.213 -101.078L674.663 -97.9169L670.249 -99.955L672.711 -95.7629L670.012 -90.9243L674.562 -94.0855L678.976 -92.0473L676.514 -96.2394ZM596.404 -9.69469L593.705 -4.85606L596.167 -0.663994L591.753 -2.70214L587.203 0.459014L589.902 -4.37962L587.44 -8.57168L591.854 -6.53353L596.404 -9.69469ZM510.896 86.5272L513.595 81.6886L509.045 84.8498L504.631 82.8116L507.093 87.0037L504.394 91.8423L508.944 88.6812L513.358 90.7193L510.896 86.5272ZM840.56 -121.292L837.861 -116.454L840.323 -112.261L835.909 -114.3L831.359 -111.138L834.058 -115.977L831.596 -120.169L836.01 -118.131L840.56 -121.292ZM755.052 -25.0702L757.751 -29.9088L753.201 -26.7477L748.787 -28.7858L751.249 -24.5938L748.55 -19.7551L753.1 -22.9163L757.514 -20.8781L755.052 -25.0702ZM674.942 61.4745L672.243 66.3131L674.705 70.5052L670.291 68.467L665.741 71.6282L668.44 66.7896L665.978 62.5975L670.392 64.6356L674.942 61.4745ZM589.434 157.696L592.133 152.858L587.583 156.019L583.169 153.981L585.631 158.173L582.932 163.012L587.482 159.85L591.896 161.888L589.434 157.696ZM919.098 -50.123L916.399 -45.2844L918.861 -41.0923L914.448 -43.1304L909.897 -39.9693L912.596 -44.8079L910.135 -49L914.548 -46.9618L919.098 -50.123ZM833.59 46.099L836.289 41.2603L831.739 44.4215L827.326 42.3833L829.787 46.5754L827.088 51.414L831.639 48.2529L836.052 50.291L833.59 46.099ZM753.48 132.644L750.781 137.482L753.243 141.674L748.83 139.636L744.279 142.797L746.978 137.959L744.517 133.767L748.93 135.805L753.48 132.644ZM667.972 228.866L670.671 224.027L666.121 227.188L661.708 225.15L664.169 229.342L661.47 234.181L666.021 231.02L670.434 233.058L667.972 228.866ZM997.637 21.0462L994.938 25.8848L997.399 30.0769L992.986 28.0388L988.436 31.1999L991.135 26.3613L988.673 22.1692L993.087 24.2073L997.637 21.0462ZM912.129 117.268L914.828 112.43L910.278 115.591L905.864 113.553L908.326 117.745L905.627 122.583L910.177 119.422L914.59 121.46L912.129 117.268ZM832.019 203.813L829.32 208.651L831.781 212.844L827.368 210.805L822.818 213.967L825.517 209.128L823.055 204.936L827.469 206.974L832.019 203.813ZM746.511 300.035L749.21 295.196L744.66 298.357L740.246 296.319L742.708 300.511L740.009 305.35L744.559 302.189L748.972 304.227L746.511 300.035Z" fill="#F6C543" fill-opacity="0.16"/>
        <path fill-rule="evenodd" clip-rule="evenodd" d="M228.292 -250.208L230.991 -255.046L226.441 -251.885L222.027 -253.923L224.489 -249.731L221.79 -244.892L226.34 -248.054L230.754 -246.015L228.292 -250.208ZM145.483 -158.824L148.182 -163.663L143.632 -160.502L139.218 -162.54L141.68 -158.348L138.981 -153.509L143.531 -156.67L147.945 -154.632L145.483 -158.824ZM65.3732 -72.2795L62.6742 -67.4409L65.1359 -63.2488L60.7223 -65.287L56.1722 -62.1258L58.8712 -66.9645L56.4094 -71.1565L60.823 -69.1184L65.3732 -72.2795ZM-20.1348 23.9424L-17.4358 19.1038L-21.986 22.2649L-26.3996 20.2268L-23.9378 24.4189L-26.6368 29.2575L-22.0867 26.0963L-17.6731 28.1345L-20.1348 23.9424ZM309.529 -183.877L306.83 -179.038L309.292 -174.846L304.879 -176.884L300.328 -173.723L303.027 -178.562L300.566 -182.754L304.979 -180.716L309.529 -183.877ZM224.021 -87.655L226.72 -92.4937L222.17 -89.3325L217.757 -91.3707L220.218 -87.1786L217.519 -82.34L222.07 -85.5011L226.483 -83.463L224.021 -87.655ZM143.911 -1.11035L141.212 3.72828L143.674 7.92034L139.261 5.88219L134.71 9.04335L137.409 4.20471L134.948 0.0126536L139.361 2.0508L143.911 -1.11035ZM58.4034 95.1116L61.1024 90.273L56.5523 93.4341L52.1387 91.396L54.6004 95.588L51.9014 100.427L56.4516 97.2655L60.8652 99.3037L58.4034 95.1116ZM388.068 -112.708L385.369 -107.869L387.83 -103.677L383.417 -105.715L378.867 -102.554L381.566 -107.393L379.104 -111.585L383.518 -109.547L388.068 -112.708ZM302.56 -16.4859L305.259 -21.3245L300.709 -18.1633L296.295 -20.2015L298.757 -16.0094L296.058 -11.1708L300.608 -14.332L305.021 -12.2938L302.56 -16.4859ZM222.45 70.0588L219.751 74.8974L222.212 79.0895L217.799 77.0514L213.249 80.2125L215.948 75.3739L213.486 71.1818L217.9 73.22L222.45 70.0588ZM136.942 166.281L139.641 161.442L135.091 164.603L130.677 162.565L133.139 166.757L130.44 171.596L134.99 168.435L139.403 170.473L136.942 166.281ZM466.606 -41.5386L463.907 -36.7L466.369 -32.5079L461.955 -34.5461L457.405 -31.3849L460.104 -36.2236L457.642 -40.4156L462.056 -38.3775L466.606 -41.5386ZM381.098 54.6833L383.797 49.8447L379.247 53.0058L374.833 50.9677L377.295 55.1597L374.596 59.9984L379.146 56.8372L383.56 58.8754L381.098 54.6833ZM300.988 141.228L298.289 146.067L300.751 150.259L296.337 148.221L291.787 151.382L294.486 146.543L292.024 142.351L296.438 144.389L300.988 141.228ZM215.48 237.45L218.179 232.611L213.629 235.772L209.215 233.734L211.677 237.926L208.978 242.765L213.528 239.604L217.942 241.642L215.48 237.45Z" fill="#EF3915" fill-opacity="0.2"/>
        <path fill-rule="evenodd" clip-rule="evenodd" d="M1489.29 -203.208L1491.99 -208.046L1487.44 -204.885L1483.03 -206.923L1485.49 -202.731L1482.79 -197.892L1487.34 -201.054L1491.75 -199.015L1489.29 -203.208ZM1406.48 -111.824L1409.18 -116.663L1404.63 -113.502L1400.22 -115.54L1402.68 -111.348L1399.98 -106.509L1404.53 -109.67L1408.94 -107.632L1406.48 -111.824ZM1326.37 -25.2795L1323.67 -20.4409L1326.14 -16.2488L1321.72 -18.287L1317.17 -15.1258L1319.87 -19.9645L1317.41 -24.1565L1321.82 -22.1184L1326.37 -25.2795ZM1240.87 70.9424L1243.56 66.1038L1239.01 69.2649L1234.6 67.2268L1237.06 71.4189L1234.36 76.2575L1238.91 73.0963L1243.33 75.1345L1240.87 70.9424ZM1570.53 -136.877L1567.83 -132.038L1570.29 -127.846L1565.88 -129.884L1561.33 -126.723L1564.03 -131.562L1561.57 -135.754L1565.98 -133.716L1570.53 -136.877ZM1485.02 -40.655L1487.72 -45.4937L1483.17 -42.3325L1478.76 -44.3707L1481.22 -40.1786L1478.52 -35.34L1483.07 -38.5011L1487.48 -36.463L1485.02 -40.655ZM1404.91 45.8896L1402.21 50.7283L1404.67 54.9203L1400.26 52.8822L1395.71 56.0433L1398.41 51.2047L1395.95 47.0127L1400.36 49.0508L1404.91 45.8896ZM1319.4 142.112L1322.1 137.273L1317.55 140.434L1313.14 138.396L1315.6 142.588L1312.9 147.427L1317.45 144.266L1321.87 146.304L1319.4 142.112ZM1649.07 -65.7078L1646.37 -60.8692L1648.83 -56.6771L1644.42 -58.7153L1639.87 -55.5541L1642.57 -60.3927L1640.1 -64.5848L1644.52 -62.5467L1649.07 -65.7078ZM1563.56 30.5141L1566.26 25.6755L1561.71 28.8367L1557.29 26.7985L1559.76 30.9906L1557.06 35.8292L1561.61 32.668L1566.02 34.7062L1563.56 30.5141ZM1483.45 117.059L1480.75 121.897L1483.21 126.09L1478.8 124.051L1474.25 127.213L1476.95 122.374L1474.49 118.182L1478.9 120.22L1483.45 117.059ZM1397.94 213.281L1400.64 208.442L1396.09 211.603L1391.68 209.565L1394.14 213.757L1391.44 218.596L1395.99 215.435L1400.4 217.473L1397.94 213.281ZM1727.61 5.46136L1724.91 10.3L1727.37 14.4921L1722.96 12.4539L1718.4 15.6151L1721.1 10.7764L1718.64 6.58437L1723.06 8.6225L1727.61 5.46136ZM1642.1 101.683L1644.8 96.8447L1640.25 100.006L1635.83 97.9677L1638.29 102.16L1635.6 106.998L1640.15 103.837L1644.56 105.875L1642.1 101.683ZM1561.99 188.228L1559.29 193.067L1561.75 197.259L1557.34 195.221L1552.79 198.382L1555.49 193.543L1553.02 189.351L1557.44 191.389L1561.99 188.228ZM1476.48 284.45L1479.18 279.611L1474.63 282.772L1470.22 280.734L1472.68 284.926L1469.98 289.765L1474.53 286.604L1478.94 288.642L1476.48 284.45Z" fill="#EF3915" fill-opacity="0.2"/>
    </g>
    <defs>
        <filter id="filter0_f_1193_906" x="-122" y="-330" width="771" height="710" filterUnits="userSpaceOnUse" color-interpolation-filters="sRGB">
            <feFlood flood-opacity="0" result="BackgroundImageFix"/>
            <feBlend mode="normal" in="SourceGraphic" in2="BackgroundImageFix" result="shape"/>
            <feGaussianBlur stdDeviation="37" result="effect1_foregroundBlur_1193_906"/>
        </filter>
        <filter id="filter1_f_1193_906" x="1147" y="-330" width="771" height="710" filterUnits="userSpaceOnUse" color-interpolation-filters="sRGB">
            <feFlood flood-opacity="0" result="BackgroundImageFix"/>
            <feBlend mode="normal" in="SourceGraphic" in2="BackgroundImageFix" result="shape"/>
            <feGaussianBlur stdDeviation="37" result="effect1_foregroundBlur_1193_906"/>
        </filter>
        <filter id="filter2_f_1193_906" x="777" y="-355" width="771" height="710" filterUnits="userSpaceOnUse" color-interpolation-filters="sRGB">
            <feFlood flood-opacity="0" result="BackgroundImageFix"/>
            <feBlend mode="normal" in="SourceGraphic" in2="BackgroundImageFix" result="shape"/>
            <feGaussianBlur stdDeviation="37" result="effect1_foregroundBlur_1193_906"/>
        </filter>
        <linearGradient id="paint0_linear_1193_906" x1="0" y1="57.5" x2="1732" y2="57.5" gradientUnits="userSpaceOnUse">
            <stop stop-color="#1F1200"/>
            <stop offset="1" stop-color="#120000"/>
        </linearGradient>
        <clipPath id="clip0_1193_906">
            <rect width="1732" height="69" fill="white"/>
        </clipPath>
    </defs>
</svg>
